<?xml version="1.0" encoding="UTF-8" standalone="no"?>
<svg
   width="782.83398"
   height="256.98599"
   viewBox="0 0 782.83397 256.98599"
   version="1.1"
   id="svg1"
   xml:space="preserve"
   xmlns="http://www.w3.org/2000/svg"
   xmlns:svg="http://www.w3.org/2000/svg"><defs
     id="defs1"><style
       id="style1">
      .st0 {
        font-family: KOLIVO-Neo-Sans-Bold, 'KOLIVO Neo Sans';
        font-size: 60px;
        font-weight: 700;
      }
    </style></defs><g
     id="g4"
     transform="translate(-3296.1743,-167.83472)"><g
       id="g1"><path
         d="m 3312.2977,424.1197 c -5.1408,0 -9.1132,-1.40203 -11.9173,-4.2061 -2.8041,-3.03775 -4.2061,-7.24386 -4.2061,-12.61833 V 188.92816 c 0,-5.60814 1.402,-9.81425 4.2061,-12.61832 2.8041,-2.80407 6.7765,-4.20611 11.9173,-4.20611 5.3745,0 9.4638,1.40204 12.2678,4.20611 2.8041,2.80407 4.2061,7.01018 4.2061,12.61832 v 93.58591 h 143.0077 v -93.58591 c 0,-5.60814 1.402,-9.81425 4.2061,-12.61832 2.8041,-2.80407 6.8934,-4.20611 12.2678,-4.20611 5.1408,0 9.1133,1.40204 11.9173,4.20611 2.8041,2.80407 4.2062,7.01018 4.2062,12.61832 v 218.36711 c 0,5.37447 -1.4021,9.58058 -4.2062,12.61833 -2.804,2.80407 -6.7765,4.2061 -11.9173,4.2061 -5.3744,0 -9.4637,-1.40203 -12.2678,-4.2061 -2.8041,-3.03775 -4.2061,-7.24386 -4.2061,-12.61833 v -97.09099 h -143.0077 v 97.09099 c 0,5.37447 -1.402,9.58058 -4.2061,12.61833 -2.5704,2.80407 -6.6596,4.2061 -12.2678,4.2061 z m 301.7882,0.70102 c -11.6836,0 -22.3157,-2.33673 -31.8963,-7.01018 -9.3469,-4.67345 -16.7076,-10.98261 -22.082,-18.92748 -5.1408,-7.94487 -7.7112,-16.82444 -7.7112,-26.63869 0,-12.61833 3.1545,-22.54941 9.4637,-29.79326 6.3092,-7.24385 16.9413,-12.38465 31.8963,-15.4224 14.9551,-3.27142 35.0509,-4.90713 60.2876,-4.90713 h 16.4739 v 20.32953 h -15.7729 c -17.9928,0 -32.2468,0.81785 -42.7621,2.45356 -10.2816,1.63571 -17.5255,4.55661 -21.7316,8.76272 -4.2061,3.97244 -6.3091,9.58059 -6.3091,16.82444 0,9.11323 3.1545,16.59076 9.4637,22.43257 6.5428,5.84182 15.4224,8.76273 26.6387,8.76273 8.8796,0 16.7076,-2.10305 23.4841,-6.30916 6.7765,-4.43979 12.151,-10.28161 16.1234,-17.52546 3.9724,-7.47752 5.9586,-16.00657 5.9586,-25.58715 v -40.30854 c 0,-13.78669 -2.804,-23.71777 -8.4122,-29.79326 -5.6081,-6.30917 -15.0718,-9.46375 -28.3912,-9.46375 -7.7112,0 -15.6561,1.05153 -23.8346,3.15459 -8.1785,2.10305 -16.7076,5.37447 -25.5872,9.81425 -3.505,1.63571 -6.5428,2.21989 -9.1132,1.75254 -2.5704,-0.70101 -4.6734,-2.10305 -6.3092,-4.20611 -1.402,-2.33673 -2.2198,-4.79029 -2.4535,-7.36068 0,-2.80407 0.5842,-5.49131 1.7525,-8.06171 1.4021,-2.5704 3.7388,-4.43978 7.0102,-5.60815 10.2816,-5.14079 20.4464,-8.76272 30.4943,-10.86578 10.2816,-2.33673 19.8622,-3.50509 28.7417,-3.50509 15.1888,0 27.6902,2.45356 37.5045,7.36069 9.8142,4.67345 17.1749,12.03414 22.0821,22.08207 4.9071,9.81425 7.3607,22.43258 7.3607,37.85497 v 92.53438 c 0,5.37447 -1.2853,9.46375 -3.8557,12.26782 -2.5703,2.80407 -6.3091,4.2061 -11.2162,4.2061 -4.6735,0 -8.4123,-1.40203 -11.2163,-4.2061 -2.5704,-2.80407 -3.8556,-6.89335 -3.8556,-12.26782 v -24.88614 h 3.1546 c -1.8694,8.64589 -5.3745,16.12341 -10.5153,22.43258 -5.1408,6.30916 -11.5668,11.21629 -19.278,14.72138 -7.4775,3.27141 -16.0066,4.90712 -25.5872,4.90712 z m 186.1206,0 c -17.5254,0 -30.8447,-5.1408 -39.958,-15.42239 -9.1132,-10.51527 -13.6698,-25.58716 -13.6698,-45.21567 V 188.22714 c 0,-5.37447 1.402,-9.3469 4.2061,-11.9173 2.804,-2.80407 6.6596,-4.20611 11.5668,-4.20611 5.1408,0 9.1132,1.40204 11.9173,4.20611 2.804,2.5704 4.2061,6.54283 4.2061,11.9173 V 361.7291 c 0,12.15098 2.4535,21.26421 7.3607,27.3397 5.1408,5.84182 12.3846,8.76273 21.7315,8.76273 h 5.6082 l 4.9071,-0.70102 c 2.5704,-0.23367 4.4398,0.46734 5.6081,2.10305 1.1684,1.63571 1.7526,4.90713 1.7526,9.81426 0,4.43978 -1.0515,7.94487 -3.1546,10.51527 -1.8694,2.33673 -5.0239,3.8556 -9.4637,4.55661 -2.1031,0.23367 -4.2061,0.35051 -6.3092,0.35051 -2.103,0.23367 -4.2061,0.35051 -6.3092,0.35051 z"
         id="text1"
         style="font-weight:500;font-size:350.509px;font-family:'KOLIVO Neo Sans';letter-spacing:0;dominant-baseline:alphabetic;fill:#ef4444;fill-opacity:1"
         aria-label="Halo" /><path
         style="fill:#ef4444;fill-opacity:1;stroke-width:0.11112"
         d="m 3931.3339,421.28886 c -0.8494,-0.90255 -2.435,-0.0409 -3.6511,-0.0997 -1.3093,-0.0636 -2.6178,-0.15261 -3.9236,-0.27197 -1.2012,-0.10989 -2.3992,-0.25862 -3.5967,-0.40839 -0.8366,-0.10468 -1.6734,-0.21049 -2.5066,-0.34255 -0.9296,-0.14738 -1.8555,-0.31922 -2.7792,-0.50165 -1.3119,-0.25915 -2.6216,-0.53236 -3.9235,-0.8421 -1.1136,-0.26505 -2.2219,-0.55603 -3.3242,-0.86935 -1.0597,-0.30119 -2.111,-0.63352 -3.1605,-0.97113 -1.0215,-0.32856 -2.0429,-0.6583 -3.0517,-1.02583 -1.1914,-0.43401 -2.3692,-0.90752 -3.5421,-1.39205 -1.2255,-0.50628 -2.4471,-1.02427 -3.6511,-1.58247 -1.1208,-0.51966 -2.226,-1.07485 -3.3241,-1.64382 -1.2103,-0.62712 -2.4111,-1.27451 -3.5967,-1.95022 -1.1027,-0.62843 -2.1964,-1.27514 -3.2697,-1.95583 -1.2737,-0.80781 -2.5221,-1.6587 -3.76,-2.52403 -1.1592,-0.81025 -2.3081,-1.63684 -3.4332,-2.49738 -0.8879,-0.67933 -1.7534,-1.38943 -2.6155,-2.10332 -0.8087,-0.66941 -1.6107,-1.34771 -2.3979,-2.04388 -0.8855,-0.78333 -1.7583,-1.58283 -2.6158,-2.39938 -1.0309,-0.9818 -2.0508,-1.97685 -3.039,-3.00469 -0.9882,-1.02802 -1.9412,-2.09184 -2.888,-3.16093 -0.7091,-0.80057 -1.4061,-1.61258 -2.0903,-2.43584 -0.5571,-0.67031 -1.1061,-1.34798 -1.6399,-2.03804 -0.7774,-1.00434 -1.5408,-2.02062 -2.2749,-3.059 -0.9972,-1.4105 -1.9565,-2.84991 -2.8916,-4.30522 -0.8511,-1.32474 -1.6839,-2.66312 -2.4738,-4.02775 -0.669,-1.15555 -1.3008,-2.33432 -1.9178,-3.52042 -0.6312,-1.21297 -1.2455,-2.43591 -1.8245,-3.6764 -0.5948,-1.27416 -1.1559,-2.56548 -1.6934,-3.86666 -0.5644,-1.36618 -1.1039,-2.74397 -1.6076,-4.13528 -0.4648,-1.28415 -0.8902,-2.58358 -1.3051,-3.88586 -0.3473,-1.08959 -0.6827,-2.18349 -0.9911,-3.28557 -0.2991,-1.07014 -0.5768,-2.14695 -0.8328,-3.22899 -0.3203,-1.35296 -0.6076,-2.71433 -0.8796,-4.07866 -0.2512,-1.26105 -0.4863,-2.52592 -0.6946,-3.79535 -0.1609,-0.97895 -0.3048,-1.96107 -0.4286,-2.94574 -0.1304,-1.03604 -0.2328,-2.0758 -0.3307,-3.1156 -0.1075,-1.13173 -0.2146,-2.26383 -0.2804,-3.39888 -0.088,-1.50879 -0.136,-3.02039 -0.154,-4.53182 -0.02,-1.6001 -0.011,-3.20108 0.048,-4.80034 0.031,-0.9262 0.094,-1.85112 0.1541,-2.77575 0.037,-0.55294 0.078,-1.10562 0.1281,-1.65758 0.095,-1.05085 0.2033,-2.10059 0.3258,-3.14843 0.1615,-1.38088 0.3274,-2.76176 0.5393,-4.13531 0.203,-1.31629 0.4385,-2.62749 0.7008,-3.93251 0.3271,-1.62951 0.6794,-3.25456 1.0876,-4.86433 0.4975,-1.96087 1.0489,-3.90792 1.6582,-5.83478 0.5613,-1.77686 1.1847,-3.53312 1.839,-5.27556 0.4299,-1.14422 0.8874,-2.27753 1.3697,-3.3989 0.5509,-1.27906 1.1388,-2.54083 1.7394,-3.79545 0.6656,-1.39049 1.3433,-2.7756 2.0661,-4.13531 0.6518,-1.2262 1.3388,-2.4325 2.0462,-3.62542 0.7716,-1.3017 1.5683,-2.58809 2.3963,-3.85212 0.7044,-1.07507 1.4394,-2.12865 2.1865,-3.17227 0.6582,-0.91886 1.3378,-1.82096 2.0219,-2.71908 0.6245,-0.81957 1.2484,-1.64011 1.9009,-2.43582 0.8707,-1.06169 1.7673,-2.10114 2.6864,-3.11818 1.1739,-1.29891 2.3788,-2.56866 3.6107,-3.80884 0.9028,-0.90877 1.8292,-1.79239 2.7689,-2.65998 0.6247,-0.57682 1.2668,-1.13375 1.9073,-1.69183 0.5946,-0.51792 1.1906,-1.0343 1.7973,-1.53708 0.7897,-0.65451 1.5896,-1.29602 2.3977,-1.92579 0.9164,-0.71405 1.8414,-1.41674 2.7793,-2.10016 0.7897,-0.57551 1.5885,-1.13807 2.3977,-1.68418 0.8796,-0.59369 1.7713,-1.1684 2.6702,-1.73056 0.9895,-0.61898 1.9852,-1.22856 2.997,-1.8078 1.2204,-0.69845 2.4579,-1.36515 3.7057,-2.00989 1.3313,-0.68796 2.6732,-1.35548 4.0325,-1.98215 1.0607,-0.48896 2.1336,-0.94967 3.2153,-1.38633 1.1884,-0.47987 2.3889,-0.92893 3.5966,-1.35495 1.5153,-0.53469 3.0399,-1.04473 4.5773,-1.50672 1.425,-0.42821 2.863,-0.81041 4.3051,-1.17183 0.9945,-0.24924 1.994,-0.47759 2.9972,-0.68696 0.905,-0.18896 1.8144,-0.35536 2.7247,-0.51367 0.9569,-0.16642 1.9151,-0.32645 2.8773,-0.45845 1.1412,-0.15675 2.2857,-0.29462 3.433,-0.39597 1.9492,-0.17215 3.9031,-0.30015 5.8583,-0.35998 2.2152,-0.0681 4.4333,-0.0704 6.6483,0 1.5954,0.0515 3.1886,0.16813 4.7789,0.30929 1.165,0.10344 2.3279,0.23796 3.4875,0.39362 1.2024,0.16135 2.4013,0.35022 3.5967,0.56006 1.1665,0.20466 2.3297,0.43038 3.4876,0.68157 0.9671,0.20985 1.931,0.43654 2.8882,0.68941 1.2977,0.34287 2.5848,0.72809 3.8692,1.12187 1.3503,0.41398 2.6987,0.83573 4.0325,1.30411 1.0991,0.38614 2.1874,0.80573 3.2696,1.24094 1.1896,0.47866 2.3728,0.97613 3.5421,1.50662 1.2666,0.57463 2.5172,1.18687 3.7599,1.81474 1.0104,0.51026 2.0117,1.03883 3.0035,1.58623 0.7973,0.44007 1.5868,0.89512 2.3685,1.36463 1.081,0.64952 2.1547,1.31347 3.2089,2.00861 1.2273,0.80905 2.4324,1.65373 3.6258,2.51525 1.0924,0.78857 2.1751,1.59191 3.2337,2.42827 1.1768,0.92992 2.3291,1.89365 3.464,2.87787 1.1405,0.98899 2.2692,1.99395 3.3601,3.04102 1.1518,1.10542 2.2595,2.2596 3.3603,3.41917 1.0181,1.07234 2.0263,2.1558 3.0003,3.27118 0.6132,0.70225 1.2031,1.42604 1.7894,2.15257 0.557,0.69027 1.105,1.38837 1.6411,2.09599 0.6581,0.86857 1.3032,1.74774 1.9335,2.6381 0.7262,1.02618 1.4358,2.06518 2.1288,3.11568 0.6478,0.98134 1.2842,1.97094 1.8956,2.97689 0.6567,1.08094 1.2891,2.17824 1.9038,3.28555 0.6313,1.13748 1.244,2.28643 1.8319,3.44863 0.5712,1.12953 1.1187,2.27224 1.6466,3.42415 0.4804,1.04814 0.9377,2.10779 1.3829,3.17225 0.2871,0.68584 0.562,1.3772 0.831,2.0708 0.2698,0.69537 0.5352,1.39269 0.7851,2.09599 0.4332,1.21968 0.8444,2.44785 1.2372,3.68208 0.3946,1.23966 0.7771,2.48393 1.1242,3.7388 0.2751,0.99452 0.518,1.99826 0.7588,3.00231 0.1984,0.82834 0.3763,1.66174 0.5647,2.49248 0.095,0.41547 0.1968,0.82894 0.2827,1.24632 0.1741,0.84671 0.3303,1.69749 0.4713,2.55089 0.2454,1.48698 0.4669,2.97868 0.6508,4.4752 0.1829,1.48719 0.3265,2.9797 0.4498,4.47343 0.1109,1.33876 0.1987,2.67979 0.2597,4.02202 0.06,1.32081 0.1075,2.64307 0.1052,3.96534 0,1.66239 -0.058,3.3249 -0.1427,4.98495 -0.076,1.47513 -0.1856,2.94868 -0.3267,4.4186 -0.1041,1.07898 -0.2418,2.15437 -0.3821,3.22889 -0.099,0.75665 -0.2063,1.51221 -0.3236,2.26596 -0.086,0.54884 -0.1821,1.09578 -0.2781,1.64272 -0.1075,0.605 -0.2141,1.20966 -0.3299,1.81279 -0.1232,0.64325 -0.2572,1.28424 -0.3877,1.92604 -0.089,0.43448 -0.17,0.87045 -0.2673,1.3029 -0.1665,0.73989 -0.3534,1.47483 -0.5414,2.20921 -0.3198,1.24987 -0.6481,2.49747 -0.9977,3.73879 -0.2028,0.72057 -0.4117,1.43951 -0.6379,2.15265 -0.2386,0.75268 -0.499,1.49782 -0.7582,2.24317 -0.3552,1.02295 -0.7083,2.04712 -1.0926,3.05903 -0.3929,1.03558 -0.8101,2.0614 -1.2391,3.08172 -0.4882,1.16106 -0.9886,2.31699 -1.5181,3.45863 -0.4954,1.06842 -1.0148,2.1251 -1.5513,3.17227 -0.4489,0.87652 -0.9145,1.74388 -1.3942,2.60269 -0.5648,1.01139 -1.1477,2.01211 -1.7467,3.00229 -0.7274,1.20284 -1.4714,2.39515 -2.2416,3.56884 -0.6537,0.99581 -1.3284,1.97694 -2.0186,2.94574 -0.6548,0.9191 -1.3231,1.82866 -2.014,2.71908 -0.9109,1.17349 -1.8463,2.32684 -2.8086,3.45555 -1.1696,1.37197 -2.3691,2.71752 -3.6016,4.02919 -1.0381,1.10471 -2.1083,2.17728 -3.1934,3.23268 -0.7131,0.69375 -1.4426,1.37016 -2.1796,2.03677 -0.6808,0.61553 -1.3747,1.21537 -2.0708,1.81218 -0.6485,0.55603 -1.3017,1.10629 -1.962,1.64773 -0.5398,0.44311 -1.0848,0.87989 -1.6347,1.30979 -0.5582,0.43635 -1.1204,0.86696 -1.6893,1.2883 -0.7195,0.53287 -1.4419,1.06199 -2.1797,1.56731 -1.2384,0.84838 -2.4943,1.67046 -3.7696,2.45799 -1.5908,0.98234 -3.2083,1.91917 -4.8401,2.82647 -1.093,0.6075 -2.1976,1.19321 -3.3146,1.75174 -0.5786,0.28924 -1.1658,0.55927 -1.7538,0.82765 -0.9575,0.43733 -1.9193,0.86461 -2.888,1.27521 -1.156,0.48991 -2.3148,0.97299 -3.4877,1.4177 -0.991,0.37573 -1.9935,0.71829 -2.9971,1.05586 -0.7777,0.26157 -1.5603,0.50723 -2.3431,0.75126 -0.4351,0.13553 -0.8703,0.26973 -1.3081,0.39588 -0.6879,0.19832 -1.377,0.39191 -2.0706,0.5677 -1.2118,0.30708 -2.4295,0.5893 -3.651,0.85049 -1.231,0.26323 -2.4669,0.50286 -3.7058,0.722 -0.96,0.16979 -1.9226,0.32674 -2.888,0.45927 -1.1599,0.15922 -2.3226,0.29463 -3.4877,0.40355 -1.5776,0.14747 -3.1584,0.2638 -4.741,0.33841 -1.3613,0.0643 -3.113,1.0798 -4.087,0.0938 -1e-4,-8e-5 10e-5,0 0,0 z m -0.017,-3.62754 c 1.5263,0 3.053,-0.0212 4.5775,-0.0938 1.2977,-0.0612 2.5942,-0.1593 3.8871,-0.28932 1.3296,-0.13366 2.6554,-0.31015 3.9779,-0.5043 1.2206,-0.17921 2.4381,-0.38267 3.6511,-0.6096 0.8388,-0.15688 1.6742,-0.3316 2.5069,-0.5198 0.8753,-0.19779 1.7467,-0.41486 2.6157,-0.64035 1.0206,-0.26489 2.0403,-0.53659 3.0517,-0.83679 1.2244,-0.36339 2.4424,-0.75066 3.6508,-1.16692 1.2811,-0.4411 2.5542,-0.90943 3.8147,-1.40945 1.2283,-0.48714 2.4488,-0.99712 3.6513,-1.54898 1.6195,-0.74329 3.2193,-1.53457 4.7953,-2.37199 1.6043,-0.85248 3.1845,-1.7552 4.7411,-2.69806 1.0707,-0.64863 2.1169,-1.33996 3.1606,-2.03426 0.7519,-0.50034 1.4974,-1.01175 2.2343,-1.53587 0.7888,-0.56111 1.5703,-1.13376 2.3405,-1.72192 0.939,-0.71694 1.8703,-1.44497 2.7792,-2.20198 1.1128,-0.92666 2.2076,-1.8776 3.2723,-2.86282 1.4348,-1.32778 2.8243,-2.70799 4.1961,-4.10533 0.9824,-1.00081 1.9501,-2.01787 2.888,-3.06319 0.4525,-0.50417 0.8846,-1.02744 1.3207,-1.54656 0.5508,-0.65509 1.1018,-1.30994 1.6368,-1.97862 0.6109,-0.76391 1.2139,-1.53523 1.7964,-2.32261 0.8043,-1.08756 1.5851,-2.19432 2.3443,-3.31608 0.8878,-1.31114 1.7545,-2.6383 2.5846,-3.98931 0.7481,-1.21773 1.477,-2.44929 2.1583,-3.70832 0.8998,-1.66279 1.7248,-3.3684 2.5457,-5.07432 0.6402,-1.32977 1.2753,-2.66304 1.8555,-4.022 0.2783,-0.65269 0.5241,-1.31981 0.7792,-1.98266 0.2896,-0.75307 0.5775,-1.50696 0.8526,-2.26593 0.2248,-0.62026 0.4423,-1.24338 0.6514,-1.86936 0.2262,-0.67678 0.4418,-1.35731 0.6528,-2.03934 0.2212,-0.71527 0.44,-1.43142 0.6425,-2.15263 0.1161,-0.41345 0.2176,-0.83099 0.3275,-1.24625 0.089,-0.34008 0.183,-0.67918 0.2712,-1.01973 0.2052,-0.7916 0.4154,-1.5822 0.6006,-2.37915 0.2187,-0.93991 0.4104,-1.88645 0.6029,-2.83242 0.1574,-0.77272 0.3103,-1.54652 0.4517,-2.32252 0.1577,-0.86666 0.3104,-1.73456 0.4426,-2.60585 0.1371,-0.90391 0.2542,-1.81106 0.363,-2.71909 0.103,-0.84832 0.1971,-1.69784 0.2721,-2.54915 0.095,-1.07465 0.1777,-2.15098 0.2264,-3.22893 0.078,-1.73571 0.1064,-3.47406 0.1064,-5.21157 0,-1.7188 -0.027,-3.43824 -0.1064,-5.15501 -0.049,-1.05911 -0.1326,-2.11659 -0.2284,-3.17228 -0.1076,-1.17301 -0.2378,-2.34378 -0.3846,-3.51219 -0.1745,-1.38981 -0.3646,-2.77787 -0.5896,-4.15989 -0.178,-1.09322 -0.376,-2.18325 -0.601,-3.26717 -0.2266,-1.09287 -0.4834,-2.17906 -0.754,-3.26102 -0.3197,-1.27753 -0.6624,-2.54926 -1.0273,-3.81374 -0.3399,-1.17741 -0.6983,-2.34946 -1.0822,-3.51221 -0.3768,-1.14124 -0.7791,-2.2737 -1.1987,-3.39885 -0.3547,-0.95104 -0.7267,-1.89523 -1.1143,-2.83242 -0.2598,-0.62796 -0.5371,-1.24806 -0.8117,-1.86937 -0.3261,-0.73862 -0.6518,-1.47754 -0.9921,-2.20928 -0.4509,-0.9694 -0.9052,-1.93767 -1.3908,-2.88906 -0.3516,-0.68857 -0.7311,-1.36138 -1.1016,-2.03933 -0.1965,-0.35975 -0.3977,-0.71679 -0.5945,-1.07628 -0.2273,-0.41459 -0.4447,-0.83506 -0.6778,-1.24624 -0.3352,-0.59165 -0.6814,-1.17681 -1.0363,-1.75613 -0.5376,-0.87795 -1.0879,-1.74806 -1.6555,-2.60579 -0.7088,-1.0714 -1.4411,-2.12616 -2.1843,-3.17228 -0.57,-0.80194 -1.1503,-1.59583 -1.7438,-2.37915 -0.536,-0.70765 -1.0825,-1.40692 -1.6404,-2.09599 -0.7135,-0.88105 -1.4327,-1.75787 -2.1828,-2.60585 -1.1135,-1.25899 -2.2689,-2.47852 -3.438,-3.6821 -1.2302,-1.26613 -2.4721,-2.52184 -3.7624,-3.72186 -0.9724,-0.90413 -1.9779,-1.77007 -2.9963,-2.61813 -1.1107,-0.92499 -2.245,-1.82051 -3.3949,-2.69271 -1.1806,-0.89557 -2.3789,-1.7668 -3.5966,-2.60736 -1.1222,-0.77471 -2.2608,-1.52454 -3.4169,-2.24395 -0.9313,-0.57954 -1.8827,-1.1243 -2.8336,-1.66861 -0.5775,-0.33048 -1.1584,-0.65428 -1.7439,-0.96947 -0.8529,-0.45937 -1.7095,-0.91253 -2.5767,-1.34321 -1.2422,-0.617 -2.4953,-1.21064 -3.7598,-1.77694 -0.9858,-0.44135 -1.9806,-0.86162 -2.9819,-1.26279 -0.9559,-0.38299 -1.9184,-0.74864 -2.8883,-1.09196 -1.2357,-0.43756 -2.4809,-0.84846 -3.733,-1.23322 -1.1739,-0.36074 -2.3535,-0.70375 -3.5421,-1.00783 -1.3154,-0.33651 -2.6405,-0.6338 -3.9704,-0.90298 -1.5974,-0.32338 -3.2018,-0.61255 -4.8126,-0.85521 -1.3694,-0.20634 -2.7454,-0.36367 -4.1219,-0.51034 -0.8284,-0.0883 -1.658,-0.17177 -2.4893,-0.22238 -1.3843,-0.0842 -2.7716,-0.11906 -4.1582,-0.13471 -1.9438,-0.0221 -3.8888,-0.0212 -5.8311,0.0567 -1.4316,0.0576 -2.8614,0.16888 -4.2883,0.3049 -1.2563,0.11966 -2.5108,0.26541 -3.7599,0.4496 -1.4043,0.20711 -2.8032,0.4574 -4.196,0.73658 -1.5188,0.30446 -3.0321,0.6409 -4.5342,1.02303 -0.9002,0.2289 -1.7885,0.5036 -2.6814,0.76003 -0.6701,0.19242 -1.3407,0.3838 -2.009,0.58424 -0.5067,0.15196 -1.0141,0.30174 -1.5166,0.46873 -1.1685,0.38858 -2.3282,0.80594 -3.4818,1.24012 -0.6215,0.23398 -1.2393,0.47943 -1.8527,0.73532 -0.2561,0.10694 -0.5085,0.22329 -0.763,0.33401 -0.5263,0.22903 -1.0585,0.44347 -1.5803,0.68334 -1.413,0.64945 -2.8106,1.33526 -4.1959,2.04543 -1.4312,0.7336 -2.8543,1.48557 -4.2506,2.28775 -0.8304,0.47698 -1.6433,0.9859 -2.4523,1.50038 -0.9731,0.61875 -1.9351,1.25624 -2.8881,1.90742 -0.9729,0.66464 -1.9371,1.34306 -2.8884,2.04055 -0.7419,0.54421 -1.4748,1.10213 -2.1986,1.6726 -0.773,0.60952 -1.5384,1.23007 -2.2888,1.86937 -0.9732,0.82927 -1.932,1.67726 -2.869,2.54975 -1.1896,1.10737 -2.3517,2.2465 -3.4936,3.40652 -0.8677,0.8816 -1.7173,1.78282 -2.5503,2.6995 -0.4061,0.44687 -0.7961,0.90928 -1.1931,1.36479 -0.422,0.48407 -0.8526,0.96039 -1.2641,1.45422 -0.4571,0.54877 -0.8967,1.11275 -1.337,1.67599 -0.2488,0.31844 -0.4893,0.64376 -0.7373,0.96304 -0.1523,0.19605 -0.3088,0.3883 -0.4607,0.58476 -0.1205,0.15612 -0.2403,0.313 -0.3574,0.47178 -0.2955,0.40005 -0.5859,0.80435 -0.8724,1.21128 -0.4042,0.57357 -0.7935,1.15805 -1.1942,1.73413 -0.2849,0.40958 -0.5776,0.81328 -0.8603,1.22453 -0.4557,0.66328 -0.9157,1.32408 -1.347,2.00461 -0.4122,0.64966 -0.8053,1.31205 -1.1841,1.98276 -0.1572,0.27774 -0.2827,0.57455 -0.4513,0.84489 -0.081,0.13154 -0.1891,0.24498 -0.2716,0.37631 -0.05,0.0806 -0.091,0.16897 -0.1362,0.25155 -0.051,0.09 -0.1097,0.17678 -0.1623,0.26582 -0.1761,0.29387 -0.3518,0.58794 -0.5208,0.88612 -0.221,0.38999 -0.4347,0.78477 -0.6455,1.18072 -0.3069,0.57671 -0.634,1.14361 -0.9029,1.74042 -0.2111,0.46851 -0.3979,0.94996 -0.5559,1.44033 -0.011,0.0349 -0.014,0.0734 -0.027,0.1066 -0.137,0.31171 -0.3991,0.55029 -0.5516,0.85412 -0.1715,0.34137 -0.2747,0.71506 -0.4023,1.0763 -0.012,0.034 -0.016,0.0728 -0.035,0.10389 -0.069,0.12346 -0.1991,0.2013 -0.2713,0.32283 -0.082,0.13739 -0.1134,0.30037 -0.1754,0.4481 -0.1889,0.44869 -0.4038,0.88515 -0.6004,1.33029 -0.2608,0.59105 -0.5306,1.17842 -0.768,1.77994 -0.1416,0.35833 -0.2494,0.73017 -0.3905,1.08855 -0.1167,0.29582 -0.2642,0.57803 -0.3763,0.87568 -0.058,0.15432 -0.1019,0.31451 -0.1536,0.47093 -0.1007,0.29734 -0.2039,0.59356 -0.3096,0.88887 -0.2335,0.65064 -0.5141,1.28391 -0.7169,1.94529 -0.1406,0.4571 -0.2191,0.93226 -0.3456,1.39373 -0.011,0.0355 -0.016,0.0733 -0.034,0.10695 -0.072,0.16185 -0.2068,0.28899 -0.2815,0.4501 -0.096,0.20552 -0.1353,0.43382 -0.2077,0.64916 -0.029,0.0845 -0.061,0.16754 -0.09,0.25242 -0.1833,0.56411 -0.3493,1.13427 -0.5108,1.7055 -0.2175,0.77062 -0.4201,1.54578 -0.6169,2.32238 -0.1007,0.39326 -0.1947,0.78782 -0.2858,1.18348 -0.057,0.24478 -0.1052,0.49155 -0.16,0.73642 -0.047,0.20824 -0.1,0.41579 -0.15,0.62312 -0.051,0.20809 -0.1132,0.41383 -0.1597,0.62311 -0.1228,0.54411 -0.2189,1.0943 -0.3218,1.64277 -0.1109,0.58447 -0.2021,1.17231 -0.3154,1.75614 -0.037,0.18932 -0.081,0.37681 -0.1179,0.56645 -0.085,0.45148 -0.1623,0.90479 -0.2299,1.35953 -0.1263,0.84727 -0.2218,1.69905 -0.3285,2.54915 -0.094,0.73613 -0.1891,1.47167 -0.2692,2.2093 -0.082,0.75421 -0.1557,1.50956 -0.2173,2.26587 -0.09,1.09396 -0.1719,2.18895 -0.2202,3.28564 -0.075,1.70205 -0.1109,3.4065 -0.1087,5.11038 0,1.58663 0.031,3.174 0.1098,4.75843 0.048,0.96079 0.1369,1.91916 0.2246,2.87697 0.097,1.05888 0.2045,2.11691 0.3326,3.17226 0.1426,1.17339 0.3026,2.34484 0.4862,3.51219 0.1637,1.04192 0.3451,2.08122 0.5488,3.1156 0.1645,0.83452 0.3508,1.66439 0.543,2.49255 0.2329,1.0042 0.487,2.00304 0.7387,3.00231 0.2335,0.92665 0.4553,1.85687 0.7162,2.77577 0.2909,1.02497 0.6138,2.04029 0.9463,3.05174 0.381,1.15882 0.786,2.30906 1.2004,3.45554 0.2121,0.58682 0.4322,1.1706 0.6582,1.75182 0.3099,0.79687 0.6207,1.59367 0.9567,2.37926 0.5724,1.3389 1.1721,2.66585 1.8026,3.97645 0.6313,1.31252 1.2952,2.60871 1.9827,3.89071 0.5947,1.10873 1.2108,2.2055 1.8525,3.28586 0.6863,1.15555 1.4004,2.29378 2.1351,3.41696 0.7772,1.18792 1.58,2.35861 2.4042,3.51209 0.6988,0.97804 1.421,1.93821 2.1537,2.88908 0.5189,0.673 1.047,1.33838 1.5879,1.99257 0.6024,0.72894 1.2199,1.44489 1.8454,2.15265 0.9296,1.05063 1.8678,2.09317 2.834,3.10745 0.9384,0.98505 1.8965,1.95059 2.877,2.8907 0.8717,0.83569 1.7668,1.64501 2.6702,2.44318 0.8951,0.7905 1.8028,1.56582 2.7248,2.32259 0.8984,0.73721 1.807,1.46131 2.7337,2.15983 1.0928,0.82402 2.2032,1.62427 3.3321,2.39499 1.3859,0.94617 2.7915,1.86279 4.222,2.73505 1.3569,0.82736 2.7385,1.61137 4.1336,2.36824 0.981,0.53241 1.9769,1.03563 2.9778,1.52761 0.7391,0.3633 1.484,0.71357 2.2344,1.0514 0.8787,0.39551 1.7645,0.77424 2.6544,1.14177 0.9936,0.41027 1.9895,0.81502 2.9972,1.18672 1.1919,0.4396 2.3937,0.852 3.6041,1.23346 1.4793,0.46608 2.9701,0.89374 4.4684,1.28874 1.4067,0.37079 2.821,0.71343 4.243,1.01434 1.2293,0.26005 2.4658,0.4847 3.7056,0.68319 1.2493,0.1999 2.5037,0.36684 3.7601,0.51092 1.2329,0.14138 2.4688,0.25099 3.7058,0.34672 0.8345,0.0651 1.6701,0.12127 2.5065,0.15396 1.0653,0.0415 2.1315,0.0552 3.1973,0.0539 z m 3.9731,-16.97231 c 0.041,-0.31333 -0.616,-0.0938 -0.8849,-0.24304 -0.2985,-0.16521 -0.5802,-0.39916 -0.7604,-0.69553 -0.2145,-0.35293 -0.3369,-0.78671 -0.3289,-1.20359 0.011,-0.50079 0.2039,-0.99752 0.4507,-1.42865 0.2662,-0.46596 0.7052,-0.79982 1.0734,-1.18484 0.6314,-0.66101 1.3105,-1.27188 1.9444,-1.93041 0.712,-0.73968 1.4101,-1.49419 2.0869,-2.26865 0.499,-0.57088 0.9765,-1.16122 1.4536,-1.75168 0.6187,-0.76583 1.2413,-1.52936 1.8272,-2.3226 0.8177,-1.10742 1.5929,-2.2484 2.3532,-3.39888 0.5904,-0.89322 1.1735,-1.79265 1.7138,-2.7191 0.4426,-0.75867 0.8408,-1.54395 1.2499,-2.32251 0.2958,-0.56339 0.5908,-1.12735 0.8704,-1.6995 0.3016,-0.61721 0.5877,-1.24261 0.8704,-1.86933 0.3639,-0.80738 0.7304,-1.61411 1.0631,-2.43592 0.204,-0.50414 0.3862,-1.01766 0.5717,-1.52946 0.2728,-0.75246 0.5465,-1.50484 0.7963,-2.26592 0.369,-1.12499 0.7205,-2.25672 1.0366,-3.3989 0.3423,-1.23714 0.6516,-2.48459 0.9307,-3.7387 0.2882,-1.29564 0.5437,-2.59953 0.7673,-3.90879 0.2537,-1.48549 0.4619,-2.97938 0.6515,-4.47515 0.1503,-1.18685 0.2807,-2.37675 0.3857,-3.56883 0.097,-1.09339 0.1598,-2.18963 0.2243,-3.28555 0.088,-1.49094 0.176,-2.98244 0.2212,-4.4754 0.098,-3.20874 0.1109,-6.41988 0.1086,-9.63017 0,-2.92698 0.07,-5.85932 -0.1132,-8.78021 -0.061,-0.9864 -0.1754,-1.97025 -0.3303,-2.94571 -0.141,-0.88748 -0.3187,-1.77021 -0.5448,-2.63877 -0.2134,-0.82093 -0.4694,-1.63134 -0.7647,-2.42465 -0.2867,-0.76969 -0.6157,-1.52308 -0.9746,-2.25951 -0.3701,-0.75906 -0.7771,-1.49947 -1.2124,-2.22042 -0.4054,-0.6713 -0.8237,-1.3377 -1.3012,-1.9562 -0.6376,-0.82636 -1.3478,-1.59288 -2.0788,-2.33204 -0.8189,-0.8282 -1.6736,-1.62247 -2.5776,-2.34962 -0.5905,-0.47491 -1.2146,-0.90624 -1.853,-1.30953 -0.5888,-0.37208 -1.2005,-0.70558 -1.8192,-1.02153 -0.6601,-0.33704 -1.3323,-0.65012 -2.0163,-0.93114 -0.6115,-0.25118 -1.231,-0.48588 -1.8633,-0.67353 -0.9419,-0.27951 -1.8989,-0.5168 -2.8677,-0.67101 -1.3344,-0.21242 -2.6865,-0.31671 -4.0363,-0.34705 -0.9638,-0.022 -1.9317,0.008 -2.8897,0.11798 -0.7296,0.0836 -1.4477,0.2538 -2.1657,0.41074 -0.7627,0.16664 -1.5272,0.33403 -2.2746,0.56346 -0.6556,0.20126 -1.3035,0.4356 -1.9335,0.71153 -0.8323,0.36481 -1.6397,0.7911 -2.4305,1.24429 -0.874,0.5008 -1.7303,1.03868 -2.552,1.62662 -0.6768,0.48433 -1.3286,1.00814 -1.9539,1.56204 -0.4635,0.41065 -0.9056,0.84829 -1.329,1.3029 -0.3884,0.41654 -0.7587,0.85163 -1.109,1.3029 -0.4528,0.58355 -0.8738,1.19374 -1.2805,1.8127 -0.4698,0.71519 -0.9244,1.44238 -1.3378,2.19408 -0.3643,0.66324 -0.6921,1.34807 -1.004,2.03934 -0.1703,0.37691 -0.3298,0.75933 -0.4726,1.14813 -0.1574,0.42827 -0.2891,0.86624 -0.4231,1.30288 -0.173,0.56361 -0.3561,1.12517 -0.4924,1.6995 -0.1596,0.6723 -0.2869,1.35375 -0.3796,2.03933 -0.1471,1.08877 -0.2058,2.18871 -0.2794,3.28557 -0.078,1.16939 -0.095,2.34264 -0.1717,3.5121 -0.058,0.8887 -0.1291,1.77671 -0.2201,2.66246 -0.094,0.90857 -0.2092,1.81453 -0.3335,2.71908 -0.1323,0.96517 -0.2713,1.92975 -0.4383,2.88908 -0.1918,1.09997 -0.4241,2.19196 -0.647,3.28557 -0.1775,0.86992 -0.3437,1.74266 -0.5497,2.60587 -0.1974,0.82833 -0.4244,1.64905 -0.6568,2.46761 -0.3022,1.06296 -0.6151,2.12297 -0.9589,3.17224 -0.2209,0.67481 -0.4489,1.34799 -0.709,2.00758 -0.371,0.9402 -0.7845,1.86239 -1.2135,2.77574 -0.5035,1.07218 -1.0255,2.13629 -1.5952,3.17228 -0.4461,0.811 -0.9301,1.59963 -1.4255,2.37924 -0.3917,0.61654 -0.7901,1.22997 -1.2229,1.81632 -0.4476,0.60625 -0.9329,1.18197 -1.4183,1.75614 -0.5795,0.68553 -1.1658,1.36614 -1.7831,2.01544 -0.5995,0.63076 -1.2201,1.24146 -1.8634,1.82411 -0.6332,0.57307 -1.2977,1.10762 -1.9619,1.64157 -0.359,0.28862 -0.7235,0.57 -1.093,0.84405 -0.488,0.36185 -0.976,0.72509 -1.4842,1.05608 -1.0289,0.67038 -2.0862,1.29623 -3.1633,1.88001 -0.9043,0.49023 -1.8256,0.94961 -2.7663,1.3604 -0.832,0.36338 -1.6798,0.69187 -2.5406,0.97493 -0.6909,0.22715 -1.3773,0.54845 -2.1015,0.57903 -0.286,0.0121 -0.5849,-0.0347 -0.8451,-0.15787 -0.2506,-0.11875 -0.4733,-0.31306 -0.6421,-0.5382 -0.2006,-0.26674 -0.3411,-0.59042 -0.4094,-0.92074 -0.071,-0.34591 -0.07,-0.71717 0.011,-1.06123 0.071,-0.30839 0.2153,-0.60633 0.4087,-0.85224 0.1803,-0.22901 0.4269,-0.39871 0.6738,-0.54665 0.5131,-0.30717 1.0983,-0.46116 1.6483,-0.68977 0.7769,-0.3228 1.5678,-0.6113 2.3329,-0.96265 0.9061,-0.41595 1.7997,-0.86411 2.6704,-1.3542 1.0613,-0.59739 2.1036,-1.23511 3.1077,-1.93062 0.7898,-0.54715 1.5491,-1.14221 2.2888,-1.76022 0.5256,-0.43921 1.0239,-0.91219 1.5241,-1.38215 0.4818,-0.45257 0.9667,-0.9024 1.4215,-1.38393 0.5169,-0.54716 1.0045,-1.12361 1.4822,-1.70756 0.5322,-0.65074 1.0517,-1.31369 1.541,-1.99968 0.4587,-0.64355 0.9005,-1.3016 1.3057,-1.98268 0.5354,-0.89995 1.0125,-1.83639 1.4836,-2.7741 0.431,-0.85724 0.8554,-1.71936 1.2273,-2.6058 0.3233,-0.77076 0.5995,-1.5621 0.8705,-2.35412 0.346,-1.011 0.6702,-2.03049 0.9645,-3.05895 0.316,-1.10549 0.5962,-2.22208 0.8593,-3.34223 0.2784,-1.1837 0.5334,-2.37369 0.7613,-3.56884 0.2083,-1.09066 0.3866,-2.18736 0.5537,-3.28558 0.1444,-0.94839 0.2904,-1.89734 0.388,-2.85208 0.1619,-1.58086 0.2229,-3.17097 0.328,-4.75698 0.1,-1.48488 0.1188,-2.9769 0.2835,-4.4555 0.087,-0.79899 0.2247,-1.5926 0.3799,-2.3807 0.1538,-0.78066 0.3404,-1.55469 0.546,-2.3225 0.1275,-0.47647 0.2648,-0.95087 0.4261,-1.4162 0.2263,-0.65264 0.4892,-1.29148 0.7594,-1.92602 0.3495,-0.82078 0.702,-1.64201 1.1133,-2.43147 0.3851,-0.73922 0.822,-1.44873 1.2643,-2.15262 0.4372,-0.69535 0.8743,-1.39358 1.3721,-2.04373 0.6098,-0.79655 1.2903,-1.53357 1.9713,-2.26593 0.6692,-0.71958 1.3387,-1.44367 2.0755,-2.08848 0.7738,-0.67723 1.6031,-1.28733 2.4523,-1.86002 1.0589,-0.71431 2.156,-1.3721 3.2854,-1.95952 0.93,-0.48354 1.8913,-0.90434 2.8655,-1.28358 0.8338,-0.32474 1.6854,-0.60339 2.5451,-0.84688 0.7082,-0.20066 1.4254,-0.37048 2.1481,-0.50494 0.8654,-0.16106 1.7383,-0.28376 2.6145,-0.36044 1.1047,-0.0967 2.2157,-0.15778 3.324,-0.12543 1.0583,0.031 2.1147,0.14578 3.162,0.30483 1.0082,0.15311 2.0073,0.37343 2.9972,0.62403 0.8082,0.20454 1.6079,0.44635 2.3978,0.71677 0.6055,0.20732 1.2048,0.43637 1.7924,0.69339 0.7405,0.32397 1.4705,0.67668 2.1797,1.06826 0.8978,0.49569 1.7715,1.03981 2.6216,1.61849 0.7302,0.49692 1.4484,1.01672 2.1251,1.58879 0.7267,0.6142 1.4063,1.28733 2.071,1.97276 0.6487,0.66934 1.2845,1.35539 1.868,2.08645 0.504,0.63167 0.9565,1.30631 1.4058,1.98102 0.4593,0.69015 0.9134,1.38612 1.3174,2.11246 0.4187,0.75315 0.8024,1.52867 1.1437,2.3226 0.4508,1.04876 0.8404,2.12641 1.1903,3.21563 0.3302,1.02738 0.6261,2.06879 0.8556,3.12506 0.2027,0.93292 0.3667,1.87776 0.4591,2.82913 0.1865,1.91438 0.1623,3.84487 0.1916,5.7687 0.052,3.43623 0.011,6.87346 -0.027,10.30991 -0.026,2.53057 -0.031,5.06224 -0.1275,7.59088 -0.046,1.13428 -0.1243,2.26698 -0.2095,3.39876 -0.096,1.26668 -0.206,2.53223 -0.3371,3.79546 -0.112,1.07819 -0.2379,2.155 -0.3828,3.22895 -0.1151,0.85183 -0.2442,1.70165 -0.3859,2.54912 -0.146,0.87114 -0.3064,1.73971 -0.4781,2.60581 -0.184,0.92816 -0.38,1.85392 -0.5915,2.77574 -0.2073,0.90321 -0.4223,1.80477 -0.6636,2.69883 -0.271,1.00388 -0.5681,2.00043 -0.8807,2.99134 -0.3081,0.97635 -0.6371,1.94575 -0.9807,2.90932 -0.3333,0.93529 -0.6715,1.86952 -1.0485,2.78673 -0.5355,1.30183 -1.1167,2.58369 -1.7225,3.85211 -0.6028,1.26267 -1.238,2.5092 -1.9018,3.73875 -0.4653,0.86198 -0.9454,1.71612 -1.4576,2.54912 -0.5929,0.9645 -1.2313,1.89843 -1.8685,2.83242 -0.4686,0.6874 -0.9407,1.373 -1.4372,2.0393 -0.4019,0.54003 -0.8248,1.06344 -1.2478,1.5862 -0.6184,0.76419 -1.2349,1.53108 -1.8858,2.26594 -0.8797,0.99315 -1.8068,1.94054 -2.727,2.89352 -0.8428,0.87273 -1.6558,1.78056 -2.559,2.58596 -0.3527,0.31456 -0.6935,0.66421 -1.1127,0.87359 -0.2555,0.12751 -0.8598,-0.0733 -0.8243,0.218 z m -12.7525,-0.46286 c -0.202,0.008 -0.4064,-0.0362 -0.5983,-0.10231 -0.2199,-0.0756 -0.4389,-0.17782 -0.6173,-0.33092 -0.2288,-0.19636 -0.4191,-0.45014 -0.5493,-0.7266 -0.138,-0.29278 -0.22,-0.6228 -0.2274,-0.94839 -0.011,-0.28618 0.061,-0.57553 0.1617,-0.84229 0.083,-0.22119 0.2133,-0.42374 0.3572,-0.60862 0.2127,-0.27358 0.4895,-0.48636 0.7372,-0.7263 0.684,-0.66236 1.3887,-1.30189 2.0679,-1.96934 1.1004,-1.08097 2.1975,-2.16656 3.2515,-3.29572 1.0689,-1.14503 2.1069,-2.32183 3.1138,-3.52549 0.6642,-0.79368 1.3108,-1.60379 1.9295,-2.43591 0.4938,-0.66433 0.9582,-1.35199 1.4218,-2.03933 0.5421,-0.80329 1.0769,-1.61223 1.5899,-2.43581 0.4873,-0.78242 0.9556,-1.57762 1.4126,-2.37919 0.4052,-0.71026 0.8005,-1.4268 1.1789,-2.15262 0.4187,-0.80309 0.8212,-1.61538 1.2071,-2.43592 0.3958,-0.84135 0.7703,-1.69327 1.1356,-2.54914 0.2164,-0.50632 0.4222,-1.01735 0.6254,-1.52951 0.1864,-0.47003 0.3728,-0.94029 0.5447,-1.41622 0.3046,-0.84324 0.5882,-1.69478 0.8627,-2.54914 0.3801,-1.18345 0.7419,-2.37348 1.0861,-3.56877 0.287,-0.99632 0.5671,-1.99507 0.8156,-3.00235 0.2593,-1.05125 0.4888,-2.11051 0.7046,-3.17227 0.2975,-1.46735 0.5724,-2.94013 0.8138,-4.41858 0.2458,-1.50563 0.4636,-3.0166 0.6461,-4.53182 0.2088,-1.73282 0.4071,-3.46883 0.5137,-5.21158 0.212,-3.46856 0.2465,-6.94776 0.249,-10.42325 0,-2.79126 0.2069,-5.61035 -0.1882,-8.37144 -0.1053,-0.73288 -0.348,-1.43884 -0.5748,-2.14152 -0.2343,-0.72631 -0.4826,-1.45214 -0.8105,-2.1385 -0.373,-0.78058 -0.8159,-1.52798 -1.3076,-2.23445 -0.5679,-0.81556 -1.1977,-1.58959 -1.8864,-2.29834 -0.5632,-0.57956 -1.1751,-1.11311 -1.825,-1.58585 -0.5673,-0.41263 -1.1776,-0.76201 -1.7981,-1.08241 -0.649,-0.33492 -1.3193,-0.6291 -2.0047,-0.87388 -0.6761,-0.2416 -1.3684,-0.44273 -2.0707,-0.58402 -0.7775,-0.15648 -1.5683,-0.25256 -2.3599,-0.28968 -0.7442,-0.0348 -1.4937,-0.0212 -2.2341,0.0636 -0.6935,0.0793 -1.3782,0.23659 -2.054,0.41481 -0.72,0.18977 -1.432,0.41874 -2.1254,0.69505 -0.544,0.21686 -1.0767,0.46768 -1.5906,0.75306 -0.4709,0.26179 -0.9203,0.56526 -1.3621,0.87692 -0.3723,0.26248 -0.7384,0.5362 -1.0841,0.83498 -0.3293,0.28457 -0.6392,0.5931 -0.9403,0.90942 -0.4047,0.42539 -0.8049,0.85849 -1.1623,1.32726 -0.4262,0.55881 -0.8059,1.15578 -1.1654,1.76283 -0.3474,0.58698 -0.6738,1.18937 -0.9561,1.81272 -0.2286,0.50474 -0.4271,1.02515 -0.5942,1.55502 -0.199,0.6306 -0.3755,1.27225 -0.4848,1.92602 -0.2064,1.23315 -0.2334,2.49165 -0.3182,3.7401 -0.095,1.37693 -0.1136,2.75863 -0.2108,4.13531 -0.074,1.03413 -0.1717,2.06637 -0.2806,3.09712 -0.112,1.05935 -0.2395,2.11701 -0.3825,3.17233 -0.1621,1.19846 -0.3453,2.39387 -0.5389,3.58731 -0.1872,1.15425 -0.3736,2.30922 -0.6019,3.45553 -0.2271,1.13914 -0.4923,2.26996 -0.7632,3.3988 -0.2228,0.92885 -0.4678,1.85191 -0.7089,2.77583 -0.1287,0.49167 -0.2541,0.98423 -0.3932,1.47279 -0.1568,0.55054 -0.3211,1.09891 -0.498,1.64281 -0.2905,0.89385 -0.5867,1.78663 -0.9247,2.66247 -0.5104,1.3222 -1.0564,2.63149 -1.6645,3.90868 -0.6255,1.31387 -1.3099,2.59892 -2.0375,3.85514 -0.5046,0.87101 -1.0494,1.71718 -1.6122,2.54914 -0.3783,0.55905 -0.7745,1.10525 -1.1847,1.63972 -0.3704,0.48291 -0.7595,0.9499 -1.1512,1.41463 -0.4323,0.51314 -0.8661,1.02552 -1.3221,1.51619 -0.6642,0.71481 -1.3468,1.41249 -2.0573,2.07792 -0.8679,0.81302 -1.7702,1.58767 -2.6911,2.33582 -0.6985,0.56767 -1.4144,1.11341 -2.1479,1.63194 -0.6682,0.47235 -1.3502,0.92553 -2.0502,1.34569 -1.0096,0.60628 -2.0472,1.16349 -3.0965,1.69314 -1.1123,0.56131 -2.2224,1.14042 -3.3876,1.57155 -0.7303,0.27035 -1.4698,0.61595 -2.2453,0.63176 -0.3664,0.008 -0.748,-0.0762 -1.071,-0.2549 -0.237,-0.13109 -0.4518,-0.3317 -0.5866,-0.57222 -0.1881,-0.33606 -0.258,-0.74461 -0.2628,-1.13294 -0.011,-0.44174 0.046,-0.91834 0.267,-1.29608 0.2278,-0.38873 0.6452,-0.62479 1.0157,-0.86872 0.544,-0.35802 1.1594,-0.58366 1.7476,-0.85663 0.5699,-0.26475 1.157,-0.48971 1.7258,-0.75746 0.4597,-0.21626 0.9125,-0.44794 1.3625,-0.68537 0.5119,-0.27029 1.0194,-0.54938 1.5201,-0.84128 0.7,-0.40814 1.3965,-0.82415 2.0734,-1.27187 0.714,-0.47199 1.4172,-0.96274 2.0945,-1.48953 0.7315,-0.56923 1.4329,-1.17966 2.1225,-1.80278 0.7498,-0.67795 1.4909,-1.36893 2.1885,-2.10437 0.7377,-0.77804 1.4424,-1.59156 2.1074,-2.43711 0.773,-0.98326 1.4859,-2.01695 2.1836,-3.05896 0.5077,-0.75866 1.0059,-1.52589 1.4566,-2.32259 0.4159,-0.73613 0.7927,-1.49625 1.1479,-2.26589 0.4796,-1.03959 0.9049,-2.10528 1.3246,-3.17232 0.2946,-0.74892 0.5775,-1.50304 0.8364,-2.26587 0.2733,-0.80466 0.5183,-1.61944 0.7564,-2.43591 0.3234,-1.10827 0.6405,-2.21936 0.9131,-3.34224 0.3047,-1.25635 0.5553,-2.52638 0.8069,-3.79537 0.2754,-1.39018 0.5341,-2.78414 0.769,-4.18235 0.2025,-1.20526 0.3936,-2.41306 0.5523,-3.62543 0.1299,-0.99247 0.2411,-1.98786 0.3269,-2.98551 0.098,-1.1308 0.1506,-2.26534 0.2127,-3.39887 0.067,-1.21683 0.087,-2.43651 0.1725,-3.65196 0.069,-0.98401 0.1186,-1.97337 0.2811,-2.94566 0.1666,-0.99632 0.4059,-1.98198 0.7077,-2.9436 0.2847,-0.90653 0.6361,-1.79251 1.0366,-2.65079 0.2925,-0.62607 0.6349,-1.22712 0.9938,-1.81483 0.2856,-0.4676 0.5974,-0.91857 0.9215,-1.35826 0.3993,-0.54105 0.8088,-1.07649 1.2594,-1.57234 0.5606,-0.61714 1.1632,-1.19509 1.7912,-1.73872 0.5732,-0.49628 1.1787,-0.95336 1.7981,-1.38565 0.5219,-0.3639 1.0584,-0.70686 1.6127,-1.01457 0.5834,-0.32372 1.1858,-0.61299 1.7984,-0.87227 0.5703,-0.24128 1.1524,-0.45513 1.7437,-0.63431 0.591,-0.17904 1.1936,-0.31808 1.7982,-0.43903 0.7398,-0.14793 1.4839,-0.28205 2.2343,-0.35012 0.8154,-0.0741 1.6368,-0.0942 2.4547,-0.0627 0.7819,0.0303 1.5621,0.1184 2.3353,0.24108 0.7327,0.11631 1.4607,0.27246 2.1773,0.46822 0.7038,0.1922 1.397,0.42833 2.0787,0.69203 0.4998,0.19325 0.9955,0.40194 1.4714,0.65118 0.6022,0.31535 1.1837,0.67463 1.7438,1.06427 0.8819,0.61371 1.7399,1.27134 2.5364,1.99953 0.6894,0.6303 1.3305,1.31936 1.9307,2.04097 0.4086,0.49182 0.7719,1.02304 1.1326,1.55373 0.3191,0.47002 0.636,0.94368 0.9118,1.44238 0.325,0.58765 0.6144,1.19735 0.8714,1.81997 0.3231,0.78278 0.6043,1.58556 0.8401,2.4011 0.2518,0.8714 0.4682,1.75683 0.6104,2.65437 0.159,1.0032 0.2127,2.02215 0.2692,3.03709 0.08,1.43307 0.088,2.86977 0.1008,4.3052 0.015,1.96383 0,3.92828 -0.052,5.89144 -0.041,1.64378 -0.1086,3.28739 -0.2112,4.92838 -0.085,1.36158 -0.2007,2.72138 -0.3368,4.07858 -0.1839,1.83541 -0.4042,3.66693 -0.6476,5.49484 -0.1792,1.34377 -0.3666,2.68689 -0.5981,4.02203 -0.1646,0.94867 -0.3554,1.89256 -0.5616,2.8324 -0.3498,1.59411 -0.7341,3.18045 -1.1465,4.75842 -0.4044,1.54647 -0.8237,3.08967 -1.3009,4.61365 -0.3107,0.99181 -0.6585,1.97106 -1.0164,2.94566 -0.3115,0.84808 -0.636,1.6913 -0.9838,2.52404 -0.5342,1.27906 -1.1012,2.54376 -1.6929,3.79543 -0.6679,1.41319 -1.3651,2.8123 -2.0957,4.19197 -0.4157,0.78469 -0.8481,1.56022 -1.301,2.32254 -0.2852,0.47985 -0.5899,0.94708 -0.8911,1.4162 -0.3906,0.60804 -0.7835,1.2146 -1.1882,1.8127 -0.4523,0.6679 -0.9097,1.33208 -1.3847,1.98267 -0.4238,0.5804 -0.8645,1.14708 -1.3063,1.71272 -0.2533,0.32404 -0.5156,0.64043 -0.7705,0.96305 -0.2195,0.27746 -0.4285,0.56368 -0.6535,0.83644 -0.4619,0.5604 -0.9419,1.1046 -1.4279,1.6428 -0.7658,0.84816 -1.5535,1.67498 -2.3437,2.49892 -0.7875,0.82108 -1.5768,1.64047 -2.3885,2.43591 -0.5489,0.53795 -1.1003,1.07462 -1.6777,1.57967 -0.3992,0.34923 -0.8008,0.69937 -1.2343,1.00161 -0.2893,0.20159 -0.582,0.40891 -0.9073,0.53818 -0.2136,0.0849 -0.4422,0.14412 -0.6708,0.1499 z m -11.1908,-2.48718 c 0.011,-0.23553 -0.4616,-0.0515 -0.6671,-0.15347 -0.2603,-0.1292 -0.4902,-0.33193 -0.6765,-0.56057 -0.2077,-0.2553 -0.3866,-0.55354 -0.468,-0.8766 -0.083,-0.33037 -0.061,-0.68792 -0.011,-1.0243 0.05,-0.29818 0.1362,-0.60272 0.3004,-0.85299 0.3309,-0.504 0.8673,-0.82518 1.3202,-1.2147 0.4618,-0.39733 0.9501,-0.76064 1.4229,-1.14377 0.6128,-0.49641 1.2367,-0.97877 1.8326,-1.49652 1.2865,-1.1178 2.5344,-2.2838 3.76,-3.47289 0.8648,-0.83897 1.7217,-1.68873 2.5343,-2.58209 0.361,-0.39703 0.695,-0.81957 1.0384,-1.23285 0.4992,-0.60081 0.997,-1.2033 1.4861,-1.81279 0.4812,-0.59915 0.9714,-1.19147 1.4256,-1.81272 0.6862,-0.93853 1.3265,-1.91248 1.9613,-2.88899 0.5813,-0.89443 1.1513,-1.7974 1.6914,-2.71907 0.2613,-0.44614 0.5103,-0.90028 0.7492,-1.35956 0.4654,-0.89453 0.91,-1.80099 1.3326,-2.71799 0.6095,-1.32271 1.2041,-2.65442 1.7339,-4.01344 0.5737,-1.4712 1.087,-2.96812 1.5622,-4.47643 0.5372,-1.70455 1.0187,-3.42853 1.4561,-5.1634 0.3686,-1.46252 0.6892,-2.93817 0.9834,-4.41859 0.2056,-1.03386 0.3786,-2.07444 0.5459,-3.11562 0.1817,-1.13036 0.3437,-2.26406 0.497,-3.39887 0.1591,-1.1775 0.3166,-2.35559 0.4386,-3.53775 0.1346,-1.30027 0.2567,-2.60283 0.324,-3.9087 0.1381,-2.6722 0.1749,-5.35024 0.165,-8.02622 -0.011,-2.07789 0.2547,-4.20105 -0.173,-6.23129 -0.112,-0.52738 -0.3498,-1.02356 -0.6106,-1.4911 -0.3125,-0.56041 -0.6894,-1.09001 -1.1293,-1.54978 -0.3988,-0.41669 -0.8655,-0.76464 -1.3478,-1.07279 -0.3706,-0.23676 -0.7594,-0.45673 -1.176,-0.58894 -0.5274,-0.16747 -1.0868,-0.21791 -1.6379,-0.24719 -0.5993,-0.0318 -1.2093,-0.04 -1.7983,0.0789 -0.545,0.10989 -1.0725,0.32237 -1.5693,0.5788 -0.5344,0.27578 -1.0496,0.60995 -1.4958,1.02044 -0.4201,0.38629 -0.7737,0.8509 -1.0869,1.33377 -0.291,0.44839 -0.5629,0.92265 -0.726,1.43578 -0.196,0.61709 -0.2252,1.27962 -0.2876,1.92603 -0.1131,1.16612 -0.086,2.34244 -0.1551,3.51218 -0.103,1.72016 -0.2308,3.43876 -0.3826,5.15495 -0.1252,1.41824 -0.2559,2.83665 -0.4357,4.24862 -0.198,1.55401 -0.461,3.09856 -0.7077,4.6451 -0.2384,1.49361 -0.4721,2.98825 -0.7464,4.47516 -0.1991,1.08014 -0.4177,2.15651 -0.6524,3.22894 -0.2032,0.92893 -0.4163,1.85573 -0.6543,2.77574 -0.1524,0.58899 -0.3232,1.1728 -0.4945,1.75613 -0.2508,0.85276 -0.5051,1.70462 -0.7808,2.54912 -0.3473,1.06442 -0.7055,2.12573 -1.1002,3.17228 -0.3837,1.01727 -0.7842,2.02911 -1.232,3.01787 -0.4709,1.03929 -0.988,2.05637 -1.5279,3.05903 -0.5254,0.9753 -1.081,1.93359 -1.6633,2.8735 -0.5226,0.84369 -1.0646,1.67581 -1.642,2.48054 -0.7672,1.06946 -1.5711,2.11208 -2.4174,3.11568 -0.7802,0.92522 -1.6058,1.80944 -2.4483,2.67437 -0.5442,0.55884 -1.1073,1.09845 -1.682,1.6234 -0.7403,0.67578 -1.4898,1.34239 -2.2736,1.96308 -1.092,0.86472 -2.2242,1.67603 -3.3788,2.44892 -1.1613,0.77758 -2.35,1.51384 -3.5649,2.19861 -0.9969,0.56195 -1.9978,1.12802 -3.0517,1.56485 -0.6287,0.26057 -1.264,0.58222 -1.9399,0.62502 -0.2997,0.0189 -0.6144,-0.0341 -0.8862,-0.16649 -0.2331,-0.11355 -0.4306,-0.30658 -0.5912,-0.51504 -0.183,-0.23735 -0.3258,-0.51676 -0.4019,-0.80987 -0.077,-0.29962 -0.1,-0.6241 -0.045,-0.92954 0.054,-0.30875 0.1964,-0.59943 0.3572,-0.8653 0.1218,-0.20144 0.272,-0.39024 0.4514,-0.53842 0.6293,-0.51956 1.4195,-0.78576 2.1296,-1.17787 1.0715,-0.59156 2.1616,-1.14791 3.2152,-1.77255 0.777,-0.46057 1.5455,-0.93837 2.2888,-1.45515 0.774,-0.53817 1.5205,-1.11839 2.2563,-1.71104 0.8552,-0.6887 1.6838,-1.41264 2.5067,-2.14212 0.5647,-0.50045 1.1362,-0.99424 1.6672,-1.53263 0.6342,-0.64286 1.2218,-1.33332 1.8086,-2.02254 0.7863,-0.92355 1.5601,-1.8599 2.2931,-2.82929 0.5841,-0.77283 1.1607,-1.55464 1.6757,-2.37866 0.7181,-1.14979 1.3536,-2.3543 1.9644,-3.56884 0.6148,-1.22309 1.1719,-2.47711 1.7079,-3.73933 0.2775,-0.65322 0.5369,-1.31492 0.7799,-1.98267 0.2725,-0.74815 0.5201,-1.506 0.7601,-2.26595 0.3086,-0.97628 0.6072,-1.95634 0.8741,-2.94563 0.2835,-1.05027 0.5342,-2.10998 0.7719,-3.17227 0.3153,-1.41023 0.6044,-2.82706 0.8675,-4.24862 0.2823,-1.52428 0.5329,-3.05485 0.7627,-4.58854 0.226,-1.50689 0.4133,-3.01985 0.6057,-4.53182 0.1177,-0.92446 0.2403,-1.84848 0.3358,-2.77576 0.066,-0.64081 0.1204,-1.28306 0.1629,-1.92603 0.099,-1.47956 0.1184,-2.96393 0.2131,-4.44375 0.087,-1.37172 0.1064,-2.75509 0.3289,-4.1102 0.099,-0.59059 0.2354,-1.17823 0.4393,-1.73893 0.1754,-0.48308 0.4172,-0.93947 0.6692,-1.38467 0.3225,-0.56882 0.6798,-1.1185 1.0744,-1.6361 0.3703,-0.48523 0.7636,-0.95716 1.2081,-1.37008 0.4016,-0.37297 0.8506,-0.69035 1.3063,-0.98929 0.46,-0.30181 0.9393,-0.57606 1.4358,-0.80807 0.4732,-0.22116 0.9622,-0.41236 1.4637,-0.55293 0.6278,-0.176 1.2722,-0.29862 1.9198,-0.35965 0.7586,-0.0719 1.528,-0.0897 2.2855,-0.008 0.7001,0.0773 1.3909,0.25141 2.0636,0.46702 0.5619,0.17999 1.1094,0.41341 1.6348,0.68642 0.5167,0.2682 1.016,0.57743 1.4829,0.92974 0.5001,0.37737 0.9755,0.79542 1.4015,1.26009 0.4288,0.46799 0.8022,0.99051 1.1498,1.52575 0.3171,0.48793 0.6039,0.99897 0.8486,1.52951 0.2126,0.46064 0.3894,0.94011 0.5345,1.428 0.1707,0.57425 0.3173,1.1603 0.3924,1.75612 0.2192,1.74222 0.1501,3.51128 0.1615,5.26823 0.015,2.13404 -0.021,4.26936 -0.1146,6.40128 -0.07,1.58867 -0.2014,3.17407 -0.3348,4.75834 -0.1243,1.4749 -0.2625,2.94883 -0.4337,4.41857 -0.1238,1.06065 -0.2666,2.11897 -0.4285,3.17401 -0.1949,1.26917 -0.4194,2.53335 -0.6532,3.79547 -0.2589,1.40032 -0.5196,2.8011 -0.8303,4.19021 -0.2763,1.2349 -0.5849,2.46238 -0.9184,3.68208 -0.2964,1.0837 -0.6213,2.15905 -0.9611,3.22891 -0.2897,0.91213 -0.5975,1.8183 -0.9186,2.71913 -0.3116,0.87421 -0.6309,1.74598 -0.978,2.60576 -0.3079,0.7636 -0.642,1.5159 -0.9797,2.26596 -0.4194,0.93196 -0.8492,1.85915 -1.2996,2.77575 -0.4117,0.83907 -0.8332,1.67367 -1.2816,2.49247 -0.2519,0.4603 -0.5264,0.90693 -0.791,1.35957 -0.1879,0.32139 -0.3723,0.64491 -0.5655,0.96304 -0.3467,0.57185 -0.6977,1.14148 -1.0654,1.6994 -0.5599,0.85028 -1.1408,1.68609 -1.7362,2.51036 -0.5797,0.80259 -1.1735,1.59455 -1.7865,2.37024 -0.5301,0.67087 -1.0768,1.32801 -1.6348,1.97411 -0.5124,0.59317 -1.0385,1.17386 -1.5728,1.74599 -0.6253,0.66957 -1.2565,1.33408 -1.9105,1.97346 -0.5841,0.57076 -1.1947,1.11131 -1.7967,1.66181 -0.27,0.24705 -0.542,0.49211 -0.8141,0.73643 -0.2748,0.24642 -0.5515,0.49016 -0.8267,0.73576 -0.2546,0.22721 -0.5044,0.46018 -0.7629,0.68265 -0.1789,0.15391 -0.3642,0.29945 -0.5449,0.45095 -0.1825,0.15307 -0.3602,0.31277 -0.5451,0.46284 -0.4284,0.34781 -0.869,0.67963 -1.3079,1.01349 -0.5774,0.4394 -1.1379,0.90573 -1.7437,1.30245 -0.2768,0.1813 -0.5516,0.3788 -0.8609,0.49068 -0.226,0.0818 -0.7467,-0.11966 -0.7085,0.12502 0,0 2e-4,0 2e-4,0 z m 48.5021,-3.17036 c -0.2666,-0.0226 -0.5331,-0.0962 -0.7763,-0.21164 -0.2479,-0.11751 -0.4857,-0.27519 -0.6741,-0.47905 -0.1545,-0.16708 -0.2788,-0.37115 -0.3542,-0.58877 -0.1007,-0.28781 -0.1277,-0.60367 -0.1162,-0.9092 0.032,-0.79784 0.2974,-1.5674 0.4783,-2.34354 0.275,-1.1784 0.6262,-2.33653 0.9228,-3.50932 0.2476,-0.97947 0.4894,-1.96075 0.7154,-2.94571 0.173,-0.75308 0.3387,-1.50802 0.4907,-2.26595 0.1774,-0.8847 0.3366,-1.77329 0.4915,-2.66243 0.2303,-1.31941 0.4453,-2.64175 0.6521,-3.96537 0.2499,-1.60288 0.4925,-3.20713 0.7105,-4.81509 0.2197,-1.62125 0.4162,-3.24585 0.6019,-4.87166 0.1767,-1.54674 0.3368,-3.09547 0.4871,-4.64518 0.1393,-1.43392 0.2709,-2.86878 0.3843,-4.3052 0.1053,-1.32074 0.1903,-2.64302 0.2722,-3.96533 0.082,-1.30237 0.1563,-2.60521 0.2175,-3.90872 0.093,-1.94417 0.1778,-3.88894 0.2244,-5.83478 0.093,-3.81328 0.1235,-7.6284 0.1098,-11.44286 -0.011,-3.02167 0.07,-6.05104 -0.1556,-9.06362 -0.063,-0.8363 -0.196,-1.66584 -0.3328,-2.49256 -0.1244,-0.75013 -0.2675,-1.49768 -0.4429,-2.23677 -0.2211,-0.93182 -0.4806,-1.85423 -0.7677,-2.7665 -0.2497,-0.79349 -0.5249,-1.57908 -0.8296,-2.35172 -0.2206,-0.5596 -0.4675,-1.10798 -0.722,-1.65199 -0.3108,-0.6646 -0.6337,-1.32371 -0.9821,-1.968 -0.3748,-0.69315 -0.7708,-1.37468 -1.1913,-2.03933 -0.4681,-0.74029 -0.9614,-1.46439 -1.4805,-2.1673 -0.4881,-0.6611 -0.9932,-1.3107 -1.535,-1.92542 -0.5196,-0.58945 -1.0804,-1.13929 -1.6421,-1.68594 -0.6095,-0.59324 -1.2358,-1.16842 -1.8737,-1.72859 -0.5161,-0.45333 -1.0411,-0.89671 -1.5805,-1.32031 -0.4194,-0.32947 -0.848,-0.64714 -1.2868,-0.94896 -0.4802,-0.33056 -0.9724,-0.64303 -1.4713,-0.9431 -0.6429,-0.38681 -1.2932,-0.76236 -1.9594,-1.10417 -0.8206,-0.42095 -1.6572,-0.80988 -2.5067,-1.16395 -0.9315,-0.38826 -1.8752,-0.74922 -2.836,-1.05124 -0.9497,-0.29864 -1.9179,-0.53425 -2.8883,-0.75012 -0.7397,-0.1646 -1.4824,-0.32617 -2.2342,-0.41513 -1.1744,-0.13901 -2.3601,-0.16207 -3.5422,-0.18387 -1.3985,-0.0257 -2.8016,-0.0544 -4.1959,0.0636 -1.0251,0.0867 -2.0434,0.26255 -3.0516,0.47282 -1.0894,0.22715 -2.1659,0.52222 -3.2309,0.85035 -0.9695,0.29864 -1.9295,0.6341 -2.8711,1.01639 -0.8456,0.34332 -1.6792,0.72289 -2.491,1.1451 -0.8071,0.41972 -1.5873,0.89368 -2.3604,1.37711 -0.5552,0.34724 -1.0985,0.71538 -1.6347,1.09329 -0.3142,0.22123 -0.6237,0.44945 -0.9264,0.6869 -0.4636,0.36367 -0.9191,0.73905 -1.3624,1.12907 -0.685,0.60298 -1.3694,1.21022 -2.0028,1.87087 -0.8437,0.8797 -1.6317,1.81711 -2.3864,2.77916 -0.7586,0.96684 -1.4743,1.97102 -2.1489,3.0023 -0.4568,0.69815 -0.8917,1.41325 -1.2834,2.15262 -0.3309,0.62525 -0.6099,1.27847 -0.8981,1.92604 -0.2081,0.46819 -0.4046,0.94194 -0.5998,1.41618 -0.1313,0.31959 -0.2648,0.63857 -0.3843,0.96306 -0.2205,0.59823 -0.422,1.20404 -0.6138,1.81272 -0.2066,0.65639 -0.4095,1.3149 -0.579,1.98267 -0.1473,0.58014 -0.2716,1.16682 -0.3803,1.75612 -0.1348,0.73227 -0.2538,1.46862 -0.3368,2.20922 -0.1377,1.23195 -0.1865,2.47297 -0.2664,3.71036 -0.082,1.26453 -0.1075,2.53334 -0.2179,3.79546 -0.082,0.93785 -0.2,1.87253 -0.3332,2.80412 -0.1411,0.98581 -0.3043,1.96852 -0.4934,2.94572 -0.2085,1.07848 -0.4445,2.15164 -0.7063,3.21757 -0.2151,0.87463 -0.4476,1.74516 -0.7099,2.60587 -0.2514,0.82409 -0.5355,1.63738 -0.8268,2.4471 -0.2049,0.56904 -0.4291,1.13044 -0.6481,1.69379 -0.033,0.0819 -0.063,0.16384 -0.097,0.24508 -0.2185,0.53349 -0.4294,1.071 -0.6746,1.59175 -0.5059,1.07335 -1.0481,2.13004 -1.642,3.1539 -0.6315,1.08892 -1.3153,2.14674 -2.0392,3.17226 -0.624,0.88355 -1.2847,1.74054 -1.9819,2.5632 -0.6347,0.74862 -1.3061,1.4647 -2,2.15454 -0.5951,0.59156 -1.2126,1.16032 -1.8528,1.69887 -0.703,0.59127 -1.4343,1.14677 -2.1798,1.67935 -0.9223,0.65906 -1.8574,1.30366 -2.8337,1.87384 -1.0763,0.62864 -2.1972,1.17484 -3.3241,1.70023 -0.9479,0.44204 -1.8913,0.91426 -2.8883,1.22007 -0.5878,0.18034 -1.1937,0.3748 -1.8065,0.35722 -0.4256,-0.0121 -0.8825,-0.079 -1.2392,-0.31933 -0.2869,-0.19309 -0.4928,-0.51419 -0.6305,-0.83829 -0.1358,-0.31931 -0.1849,-0.68352 -0.169,-1.03198 0.017,-0.33146 0.095,-0.67084 0.2498,-0.9614 0.1586,-0.29725 0.4,-0.55252 0.6683,-0.74806 0.5289,-0.38531 1.1873,-0.53213 1.7858,-0.78622 0.837,-0.35525 1.6979,-0.65003 2.5237,-1.0321 0.7674,-0.35511 1.5128,-0.76044 2.2547,-1.16939 0.4903,-0.2701 0.9708,-0.55897 1.451,-0.84784 0.2812,-0.16905 0.5657,-0.33304 0.8372,-0.51821 0.4799,-0.32697 0.938,-0.68685 1.3968,-1.04456 0.3439,-0.26802 0.686,-0.53875 1.0156,-0.82511 0.4551,-0.39536 0.8933,-0.81162 1.3274,-1.23171 0.687,-0.66496 1.3775,-1.3284 2.0202,-2.03909 0.4168,-0.46089 0.8026,-0.9511 1.1886,-1.44019 0.3362,-0.4267 0.6645,-0.86039 0.9814,-1.30289 0.2656,-0.37101 0.53,-0.74394 0.7705,-1.13295 0.159,-0.25733 0.2964,-0.52827 0.4433,-0.79309 0.2573,-0.46361 0.5224,-0.9228 0.7677,-1.3932 0.4086,-0.78346 0.8077,-1.57309 1.1726,-2.37927 0.391,-0.86316 0.7562,-1.73946 1.088,-2.62879 0.3197,-0.85711 0.6031,-1.72895 0.8686,-2.60579 0.2606,-0.86122 0.5007,-1.72978 0.7104,-2.60578 0.2649,-1.10584 0.4926,-2.22162 0.6914,-3.34222 0.2164,-1.22127 0.4107,-2.44826 0.5451,-3.68215 0.1189,-1.09111 0.1623,-2.18977 0.2304,-3.28557 0.067,-1.07575 0.093,-2.15439 0.1755,-3.22892 0.067,-0.87056 0.1436,-1.74131 0.2632,-2.60578 0.1137,-0.81705 0.2649,-1.62846 0.4305,-2.43586 0.1637,-0.7982 0.3485,-1.5922 0.5568,-2.37923 0.2014,-0.76176 0.4242,-1.51795 0.6695,-2.26589 0.2486,-0.75798 0.5108,-1.51224 0.8121,-2.24937 0.3576,-0.87446 0.76,-1.72949 1.1799,-2.57373 0.5001,-1.00479 1.0166,-2.00278 1.5939,-2.96226 0.6164,-1.02478 1.2719,-2.02761 1.9918,-2.97735 0.9334,-1.23133 1.9555,-2.39097 3.008,-3.51468 0.9526,-1.01683 1.9527,-1.98722 2.9866,-2.91447 0.5087,-0.45596 1.0417,-0.88257 1.58,-1.3004 0.3771,-0.29266 0.7621,-0.57449 1.1547,-0.84438 0.7113,-0.489 1.4343,-0.96115 2.1741,-1.40295 0.8199,-0.48963 1.6583,-0.94678 2.5066,-1.38121 0.6469,-0.33106 1.3021,-0.6455 1.9682,-0.93277 0.7525,-0.32459 1.5152,-0.62623 2.2889,-0.89247 0.879,-0.30257 1.773,-0.55884 2.6699,-0.79969 0.7039,-0.18895 1.4118,-0.36274 2.1255,-0.50587 0.704,-0.1413 1.4141,-0.24998 2.1252,-0.34795 0.8511,-0.11735 1.7048,-0.22049 2.5613,-0.28713 0.8656,-0.0672 1.734,-0.11874 2.6021,-0.11377 1.055,0.008 2.1097,0.0777 3.1606,0.17457 1.0438,0.0961 2.0848,0.23169 3.1198,0.40302 0.8567,0.1419 1.7113,0.30582 2.5546,0.51715 0.9926,0.24872 1.9727,0.55133 2.9428,0.88227 0.8361,0.2853 1.6567,0.6182 2.4769,0.9501 0.2815,0.11398 0.5622,0.23115 0.8388,0.35749 0.545,0.24885 1.087,0.50587 1.6164,0.7883 1.0113,0.53933 2.0038,1.11713 2.976,1.72863 0.716,0.45042 1.4174,0.92633 2.1013,1.42753 0.6911,0.50664 1.3711,1.03172 2.0201,1.59496 0.9783,0.84887 1.9173,1.74803 2.8183,2.68422 0.7991,0.83022 1.5639,1.69719 2.2902,2.5961 0.5746,0.71124 1.1063,1.45887 1.6325,2.20928 0.4255,0.6071 0.8538,1.21418 1.232,1.85404 0.476,0.8057 0.8852,1.65219 1.3014,2.49254 0.4356,0.87825 0.862,1.76197 1.2509,2.66329 0.257,0.59589 0.4934,1.20154 0.7146,1.81271 0.2315,0.64013 0.4458,1.28724 0.6396,1.94052 0.2282,0.76709 0.436,1.54112 0.6156,2.32179 0.2327,1.01213 0.4315,2.03313 0.5986,3.05902 0.1687,1.03362 0.332,2.07099 0.4072,3.11637 0.2329,3.23921 0.1359,6.49532 0.1331,9.74348 -0.011,4.17358 -0.057,8.34792 -0.1917,12.51915 -0.063,1.94636 -0.1775,3.89068 -0.288,5.83477 -0.081,1.43572 -0.1727,2.87101 -0.277,4.30521 -0.1484,2.04075 -0.3098,4.08053 -0.4959,6.11797 -0.1619,1.77687 -0.343,3.5519 -0.54,5.32491 -0.1514,1.36121 -0.314,2.72112 -0.4931,4.07864 -0.2024,1.53202 -0.4194,3.06198 -0.657,4.58855 -0.2354,1.51377 -0.4917,3.02415 -0.7616,4.53181 -0.2069,1.15426 -0.4173,2.30808 -0.6565,3.45552 -0.2849,1.36521 -0.6005,2.72358 -0.928,4.07869 -0.3606,1.49333 -0.7163,2.98911 -1.1403,4.46448 -0.2138,0.74362 -0.3683,1.51738 -0.7076,2.20927 -0.1565,0.31967 -0.346,0.63515 -0.6028,0.87577 -0.2039,0.19129 -0.4545,0.33848 -0.717,0.42487 -0.2155,0.0711 -0.4499,0.086 -0.6755,0.0672 z m -58.3245,-0.97275 c -0.2537,-0.008 -0.5121,0.0211 -0.7606,-0.0317 -0.2003,-0.0423 -0.4039,-0.10649 -0.5735,-0.22474 -0.2075,-0.14469 -0.3721,-0.35383 -0.5095,-0.57018 -0.1732,-0.27302 -0.3184,-0.57651 -0.3828,-0.89626 -0.063,-0.31971 -0.076,-0.66412 0.011,-0.97983 0.089,-0.35332 0.2816,-0.68612 0.521,-0.95511 0.7321,-0.82377 1.7852,-1.26416 2.684,-1.88698 1.2299,-0.85223 2.502,-1.64009 3.7056,-2.53136 0.8217,-0.60865 1.6163,-1.25728 2.3976,-1.92057 0.7758,-0.65829 1.5374,-1.33527 2.2722,-2.04197 1.0212,-0.98249 2.0228,-1.99007 2.9664,-3.05267 1.0796,-1.21606 2.0968,-2.49219 3.077,-3.79546 0.6824,-0.90716 1.3339,-1.84024 1.949,-2.7974 0.4623,-0.71888 0.889,-1.46204 1.3072,-2.20922 0.4588,-0.81953 0.9012,-1.64932 1.3179,-2.49256 0.3867,-0.78217 0.7496,-1.57716 1.0966,-2.37916 0.3691,-0.8536 0.7216,-1.71531 1.0468,-2.58779 0.3548,-0.95299 0.6762,-1.91931 0.9856,-2.88908 0.2472,-0.77509 0.4779,-1.55605 0.6957,-2.34059 0.2139,-0.77017 0.4097,-1.54577 0.6004,-2.32254 0.2542,-1.03527 0.5019,-2.07251 0.7243,-3.11559 0.2406,-1.12847 0.4624,-2.26157 0.66,-3.39888 0.2811,-1.61831 0.5186,-3.24464 0.7473,-4.87173 0.2199,-1.56446 0.4281,-3.13103 0.6005,-4.70178 0.112,-1.01079 0.1944,-2.02457 0.2787,-3.03799 0.081,-0.98122 0.1606,-1.96278 0.2199,-2.94575 0.091,-1.49825 0.1018,-3.0013 0.206,-4.49851 0.081,-1.15434 -0.011,-2.3509 0.3288,-3.45554 0.075,-0.24818 0.2075,-0.48046 0.3666,-0.68159 0.1426,-0.18009 0.3144,-0.34561 0.5144,-0.45301 0.3189,-0.1714 0.6844,-0.28439 1.0438,-0.27903 0.3694,0.008 0.7468,0.12396 1.0648,0.3189 0.2378,0.14582 0.4391,0.36556 0.5848,0.60851 0.1697,0.28223 0.2575,0.61579 0.3123,0.94323 0.1682,1.00965 0.054,2.04918 0.037,3.07356 -0.028,1.46909 -0.123,2.93603 -0.2114,4.40253 -0.077,1.27991 -0.1681,2.55921 -0.2778,3.83654 -0.1098,1.26689 -0.2356,2.53219 -0.3782,3.79545 -0.163,1.44263 -0.3417,2.88356 -0.5451,4.32072 -0.2142,1.51422 -0.441,3.02718 -0.7113,4.5318 -0.2283,1.27083 -0.4912,2.53507 -0.7684,3.79546 -0.2709,1.23233 -0.5619,2.46027 -0.8745,3.68209 -0.3249,1.27128 -0.6494,2.54406 -1.0401,3.79538 -0.389,1.24637 -0.8389,2.4719 -1.2965,3.6931 -0.3354,0.89506 -0.6881,1.78343 -1.0613,2.66246 -0.2575,0.60678 -0.5261,1.20885 -0.8122,1.80173 -0.388,0.80406 -0.8017,1.59502 -1.2258,2.37927 -0.4652,0.85978 -0.9371,1.71648 -1.4464,2.54911 -0.6157,1.00655 -1.2692,1.98843 -1.9428,2.95442 -0.5912,0.84793 -1.2021,1.68186 -1.8404,2.4925 -0.5013,0.63675 -1.0269,1.25307 -1.5609,1.86067 -0.7145,0.81337 -1.4485,1.60887 -2.1977,2.38841 -0.5336,0.55511 -1.0782,1.09919 -1.6351,1.62918 -0.4094,0.38941 -0.8331,0.76214 -1.2534,1.13886 -0.5597,0.5017 -1.1134,1.01147 -1.6892,1.49321 -0.6046,0.50572 -1.2254,0.99102 -1.8529,1.46572 -0.8764,0.66301 -1.7679,1.30532 -2.6702,1.92997 -0.8068,0.55853 -1.6217,1.10518 -2.4523,1.6249 -0.4481,0.28038 -0.8897,0.57706 -1.3647,0.80518 -0.3157,0.15165 -0.638,0.30861 -0.9808,0.37147 0,0 0,0 0,0 z m 70.4294,-6.08106 c -0.3598,0.0181 -0.732,-0.0926 -1.0483,-0.27124 -0.339,-0.19142 -0.6524,-0.47403 -0.8447,-0.82086 -0.1887,-0.34098 -0.232,-0.75723 -0.2531,-1.14963 -0.044,-0.81948 0.1681,-1.63239 0.2697,-2.44637 0.1618,-1.2994 0.3719,-2.59201 0.5414,-3.89044 0.1942,-1.49004 0.3714,-2.98242 0.5448,-4.47517 0.1756,-1.5096 0.3403,-3.02058 0.5018,-4.53189 0.1332,-1.24571 0.2667,-2.4914 0.3855,-3.7387 0.1154,-1.20762 0.2178,-2.41639 0.3171,-3.62551 0.1162,-1.41551 0.2209,-2.83204 0.3253,-4.24863 0.076,-1.0383 0.1528,-2.0766 0.2207,-3.1156 0.057,-0.88719 0.1132,-1.77456 0.1604,-2.66245 0.084,-1.58555 0.15,-3.17209 0.2206,-4.75842 0.077,-1.7559 0.1763,-3.51114 0.2222,-5.26826 0.094,-3.55341 0.1253,-7.10884 0.1064,-10.66348 -0.018,-3.48841 0.026,-6.98359 -0.2182,-10.46297 -0.076,-1.09179 -0.2263,-2.1775 -0.3883,-3.25922 -0.1215,-0.81322 -0.2613,-1.62445 -0.4382,-2.42668 -0.2301,-1.04423 -0.509,-2.07715 -0.8098,-3.102 -0.3162,-1.07681 -0.6497,-2.14999 -1.0455,-3.19836 -0.3883,-1.02922 -0.8398,-2.03253 -1.3017,-3.02871 -0.4746,-1.02315 -0.9651,-2.03999 -1.5088,-3.02566 -0.5321,-0.96425 -1.1089,-1.90264 -1.7129,-2.82038 -0.5858,-0.88959 -1.2086,-1.75334 -1.8508,-2.60012 -0.5756,-0.75896 -1.1775,-1.49698 -1.7934,-2.22132 -0.4551,-0.53509 -0.9153,-1.06675 -1.4046,-1.56847 -0.3886,-0.39845 -0.8013,-0.77168 -1.214,-1.14307 -0.6925,-0.6225 -1.4,-1.22688 -2.1175,-1.81785 -0.7491,-0.61675 -1.5008,-1.23174 -2.2829,-1.80256 -0.726,-0.5298 -1.471,-1.03362 -2.2343,-1.50366 -1.032,-0.63529 -2.0923,-1.22158 -3.1667,-1.77648 -0.983,-0.50768 -1.9816,-0.98512 -2.9971,-1.41907 -0.6801,-0.29068 -1.3747,-0.54535 -2.0705,-0.79226 -0.613,-0.21739 -1.2322,-0.41503 -1.8532,-0.60641 -0.5239,-0.16156 -1.0492,-0.32131 -1.5801,-0.45745 -0.5954,-0.15264 -1.1955,-0.28632 -1.7984,-0.40257 -0.9759,-0.1881 -1.9549,-0.37387 -2.9424,-0.47667 -1.7552,-0.18276 -3.5225,-0.24075 -5.2861,-0.24788 -1.6696,-0.008 -3.3433,0.0303 -5.0052,0.19393 -0.8966,0.0884 -1.7849,0.25521 -2.6704,0.42504 -0.8425,0.16162 -1.6807,0.35187 -2.5126,0.56481 -0.9289,0.23773 -1.8543,0.49392 -2.7658,0.79504 -0.976,0.32253 -1.9408,0.68423 -2.8905,1.08218 -1.0565,0.44272 -2.0968,0.92915 -3.1194,1.45054 -0.8697,0.44324 -1.7276,0.91312 -2.5612,1.42483 -0.7645,0.46918 -1.5071,0.97713 -2.2342,1.50622 -1.0319,0.75104 -2.037,1.54283 -3.0166,2.36524 -0.81,0.67994 -1.6108,1.37476 -2.3632,2.12201 -0.6241,0.6195 -1.1962,1.29238 -1.7791,1.95302 -0.5697,0.64552 -1.1431,1.28854 -1.6787,1.96437 -0.4791,0.60437 -0.9277,1.2343 -1.3713,1.86705 -0.4771,0.68042 -0.9537,1.36272 -1.3873,2.07379 -0.5721,0.93855 -1.093,1.9103 -1.5986,2.88899 -0.5714,1.10714 -1.1169,2.22965 -1.6201,3.3718 -0.3728,0.84617 -0.72,1.70507 -1.0347,2.57615 -0.2416,0.66864 -0.457,1.34782 -0.6541,2.0319 -0.1809,0.62743 -0.3347,1.26305 -0.4846,1.8991 -0.1774,0.75201 -0.353,1.50516 -0.4912,2.26588 -0.1567,0.8635 -0.2707,1.73496 -0.3825,2.60586 -0.1075,0.82893 -0.2045,1.65944 -0.2752,2.49251 -0.083,0.97997 -0.1109,1.96418 -0.1754,2.94562 -0.069,1.03906 -0.111,2.08113 -0.2263,3.11568 -0.082,0.72152 -0.1997,1.43851 -0.3287,2.15264 -0.1251,0.69234 -0.2739,1.38004 -0.4314,2.06526 -0.1655,0.72123 -0.3439,1.43941 -0.5392,2.15265 -0.149,0.54331 -0.3068,1.08428 -0.482,1.61913 -0.1687,0.51497 -0.3479,1.02658 -0.5475,1.52953 -0.2581,0.65087 -0.5407,1.2917 -0.8396,1.92368 -0.3627,0.76719 -0.7526,1.52097 -1.1564,2.26594 -0.3842,0.70895 -0.7643,1.42285 -1.2046,2.0959 -0.5286,0.80769 -1.1266,1.5649 -1.7203,2.32259 -0.5652,0.72109 -1.1387,1.4367 -1.752,2.11443 -0.4768,0.52685 -0.9785,1.02961 -1.4955,1.51424 -0.5445,0.51057 -1.1007,1.01025 -1.6893,1.46567 -0.7888,0.61043 -1.6225,1.15776 -2.4614,1.69224 -0.9608,0.61214 -1.9331,1.20947 -2.9416,1.73252 -0.7663,0.39718 -1.5548,0.75013 -2.3559,1.06417 -0.6554,0.2568 -1.3106,0.54008 -2,0.66872 -0.4799,0.0895 -0.9869,0.18262 -1.4618,0.0673 -0.3147,-0.0766 -0.6049,-0.26634 -0.8485,-0.48653 -0.1706,-0.15409 -0.3194,-0.34673 -0.4058,-0.56319 -0.1109,-0.27467 -0.1306,-0.58547 -0.1222,-0.88257 0.011,-0.35885 0.068,-0.72653 0.2073,-1.0554 0.1064,-0.25037 0.26,-0.49062 0.4631,-0.66527 0.5359,-0.46048 1.2565,-0.6223 1.8908,-0.9207 0.939,-0.44195 1.9079,-0.81627 2.8335,-1.28782 0.8548,-0.43547 1.7018,-0.89362 2.5069,-1.42084 0.9479,-0.62078 1.86,-1.30469 2.7246,-2.04436 0.8971,-0.76732 1.7464,-1.59702 2.5443,-2.47361 0.6743,-0.7408 1.302,-1.52867 1.8874,-2.34618 0.442,-0.61723 0.8389,-1.26886 1.2234,-1.92605 0.3269,-0.55842 0.6286,-1.13262 0.9201,-1.71177 0.3092,-0.61451 0.6126,-1.23331 0.8781,-1.86939 0.3435,-0.82301 0.647,-1.66436 0.9223,-2.51425 0.3146,-0.96994 0.5938,-1.95287 0.832,-2.94573 0.2179,-0.9098 0.4083,-1.82835 0.5451,-2.75503 0.1633,-1.10692 0.2378,-2.22622 0.3274,-3.34221 0.099,-1.21062 0.1274,-2.42638 0.2275,-3.6368 0.087,-1.07838 0.1833,-2.15746 0.3317,-3.22889 0.1422,-1.02568 0.3301,-2.04461 0.5344,-3.05897 0.1606,-0.79783 0.3355,-1.59326 0.5435,-2.37924 0.2744,-1.03611 0.5955,-2.05883 0.9281,-3.07659 0.342,-1.04714 0.6994,-2.08985 1.0979,-3.11561 0.2056,-0.53 0.4295,-1.05282 0.6666,-1.5685 0.3615,-0.78577 0.7485,-1.55919 1.1522,-2.32262 0.5469,-1.03498 1.1169,-2.05784 1.7202,-3.05896 0.5331,-0.88506 1.0957,-1.75137 1.6768,-2.60351 0.4334,-0.63515 0.8808,-1.26025 1.3481,-1.86901 0.2513,-0.32743 0.5188,-0.64123 0.782,-0.9585 0.2843,-0.34242 0.5653,-0.68808 0.8607,-1.01999 0.5828,-0.6543 1.1869,-1.28816 1.7985,-1.91354 0.6984,-0.71434 1.3973,-1.43006 2.1363,-2.09938 0.8428,-0.76336 1.7246,-1.48014 2.6156,-2.182 0.8008,-0.63075 1.6153,-1.24397 2.4523,-1.82218 0.4799,-0.33151 0.9757,-0.63749 1.4716,-0.94307 0.5932,-0.36594 1.1925,-0.72186 1.798,-1.0659 0.7098,-0.40339 1.4237,-0.80073 2.1507,-1.16999 0.7302,-0.37081 1.466,-0.73251 2.2199,-1.04906 1.0638,-0.44667 2.1514,-0.83295 3.2444,-1.197 1.177,-0.3922 2.3648,-0.75452 3.5653,-1.06268 0.9365,-0.24037 1.8838,-0.43636 2.8337,-0.61236 0.9009,-0.16696 1.8049,-0.32625 2.7157,-0.42035 1.5384,-0.15891 3.0861,-0.22199 4.632,-0.24242 1.7079,-0.0226 3.4192,0 5.1224,0.1326 1.0772,0.084 2.1483,0.24333 3.2152,0.41858 0.8584,0.14102 1.7121,0.31611 2.5612,0.50885 0.7493,0.17002 1.4941,0.36223 2.2343,0.57085 0.7497,0.21141 1.4961,0.43804 2.234,0.68962 0.8623,0.29391 1.7183,0.60897 2.5614,0.95722 0.9024,0.37289 1.7927,0.77932 2.6702,1.21121 0.9768,0.48069 1.9415,0.98958 2.8863,1.53482 1.0699,0.6175 2.1232,1.26877 3.1471,1.96467 0.9075,0.6166 1.7939,1.26839 2.6523,1.95612 0.8297,0.66487 1.6267,1.37354 2.4111,2.09491 0.6909,0.63555 1.3688,1.28755 2.0207,1.96611 0.5655,0.58863 1.1071,1.20185 1.6377,1.82413 0.5559,0.65174 1.1019,1.31349 1.619,1.99864 0.5829,0.77266 1.1337,1.57148 1.6705,2.37917 0.6008,0.90412 1.1924,1.81651 1.734,2.75988 0.636,1.10729 1.2181,2.24785 1.7768,3.39889 0.5513,1.13504 1.0849,2.28112 1.5532,3.45542 0.3256,0.81686 0.5965,1.65622 0.8719,2.49259 0.2067,0.62743 0.4061,1.2578 0.5864,1.89394 0.239,0.84384 0.4593,1.69371 0.6562,2.54921 0.2444,1.06177 0.4729,2.1285 0.6513,3.20426 0.1776,1.07023 0.3383,2.14612 0.4165,3.229 0.2844,3.93599 0.1788,7.89244 0.1902,11.83937 0.014,4.49429 -0.011,8.9899 -0.1379,13.48221 -0.049,1.70075 -0.1506,3.39948 -0.2429,5.09829 -0.082,1.49236 -0.1757,2.98389 -0.2725,4.47522 -0.086,1.32216 -0.1709,2.64446 -0.2726,3.96534 -0.098,1.26605 -0.2163,2.53022 -0.3237,3.79545 -0.1109,1.30282 -0.2053,2.60715 -0.3298,3.9087 -0.148,1.55025 -0.3232,3.09767 -0.4963,4.64513 -0.2267,2.02169 -0.4606,4.04256 -0.7105,6.06131 -0.2246,1.81386 -0.4111,3.63419 -0.7086,5.43679 -0.1803,1.09192 -0.1402,2.28105 -0.6516,3.25424 -0.1711,0.32548 -0.4614,0.58348 -0.7645,0.78083 -0.285,0.18556 -0.6145,0.33562 -0.9509,0.35295 z m 10.8235,-9.83333 c -0.2252,-0.008 -0.4476,-0.0781 -0.6566,-0.1653 -0.297,-0.12388 -0.6041,-0.26562 -0.8301,-0.50057 -0.2234,-0.23229 -0.3914,-0.53542 -0.4743,-0.85179 -0.174,-0.66562 -0.039,-1.37971 -0.013,-2.06896 0.051,-1.44882 0.229,-2.88998 0.3363,-4.33551 0.1135,-1.52917 0.2294,-3.05814 0.3258,-4.58856 0.1041,-1.6419 0.1901,-3.28495 0.2697,-4.92832 0.1063,-2.18977 0.1858,-4.38068 0.2754,-6.57122 0.078,-1.92594 0.1794,-3.85114 0.2309,-5.77804 0.1164,-4.34454 0.1591,-8.69119 0.1768,-13.0373 0.016,-4.22978 0.1418,-8.46502 -0.069,-12.68912 -0.061,-1.22884 -0.1986,-2.45307 -0.3475,-3.6739 -0.1297,-1.0644 -0.2951,-2.12436 -0.4756,-3.1808 -0.1295,-0.75835 -0.2669,-1.51591 -0.4358,-2.26595 -0.1791,-0.79663 -0.3945,-1.58433 -0.6121,-2.37062 -0.2261,-0.81633 -0.4544,-1.63254 -0.7206,-2.43584 -0.3156,-0.95396 -0.6643,-1.89659 -1.038,-2.82796 -0.5525,-1.37756 -1.1367,-2.74293 -1.778,-4.07865 -0.5831,-1.21447 -1.2101,-2.40732 -1.879,-3.5733 -0.5519,-0.96161 -1.1428,-1.89954 -1.7584,-2.81873 -0.6147,-0.91727 -1.2588,-1.81415 -1.9299,-2.68769 -0.7037,-0.91539 -1.438,-1.8063 -2.1969,-2.67312 -0.6564,-0.74969 -1.3413,-1.47257 -2.0363,-2.18395 -0.5328,-0.54543 -1.0791,-1.07697 -1.6347,-1.59735 -0.5186,-0.4854 -1.0434,-0.96383 -1.5845,-1.42175 -0.6038,-0.51078 -1.2267,-0.99663 -1.853,-1.47755 -0.735,-0.56465 -1.4736,-1.12537 -2.2342,-1.6525 -0.8727,-0.60489 -1.7629,-1.18391 -2.6702,-1.73132 -0.9278,-0.55958 -1.8764,-1.08241 -2.8335,-1.58602 -0.6998,-0.36806 -1.409,-0.71706 -2.1254,-1.04858 -0.6651,-0.30773 -1.3382,-0.59681 -2.0163,-0.87229 -0.9008,-0.36595 -1.805,-0.72486 -2.7246,-1.03635 -1.1138,-0.37713 -2.2433,-0.70669 -3.3787,-1.00661 -1.1179,-0.29523 -2.244,-0.56298 -3.3786,-0.77969 -0.9931,-0.18963 -1.9947,-0.33092 -2.9972,-0.45468 -1.0143,-0.12517 -2.0321,-0.22275 -3.0517,-0.2909 -0.9793,-0.0652 -1.9609,-0.11204 -2.9427,-0.11294 -0.9814,0 -1.9627,0.0507 -2.9426,0.10796 -0.7276,0.0422 -1.4548,0.097 -2.1797,0.17425 -0.8561,0.0913 -1.71,0.20862 -2.5613,0.34153 -1.0572,0.16519 -2.1131,0.34355 -3.1605,0.56632 -0.7868,0.1673 -1.5663,0.36843 -2.3433,0.57796 -0.6576,0.17738 -1.3118,0.36928 -1.9618,0.57454 -0.6212,0.19622 -1.24,0.40174 -1.8514,0.62774 -0.8807,0.32543 -1.754,0.6729 -2.6159,1.04792 -1.1959,0.52047 -2.3823,1.06797 -3.5434,1.66743 -1.1104,0.57335 -2.2041,1.18459 -3.2694,1.84325 -0.7076,0.43737 -1.3922,0.91435 -2.071,1.39813 -0.758,0.54037 -1.4988,1.10639 -2.2342,1.67951 -0.6669,0.5198 -1.3316,1.04345 -1.9743,1.59503 -0.352,0.30193 -0.6856,0.62593 -1.0292,0.93778 -0.3755,0.34068 -0.7626,0.66759 -1.1279,1.01969 -0.5691,0.54801 -1.1161,1.11999 -1.6551,1.69939 -0.7047,0.75778 -1.4037,1.5228 -2.0636,2.32261 -0.8322,1.00859 -1.6236,2.0538 -2.3877,3.11855 -0.8324,1.15995 -1.6417,2.33954 -2.3907,3.55901 -0.6325,1.0302 -1.2174,2.09235 -1.7724,3.1694 -0.4795,0.93066 -0.9231,1.88158 -1.3444,2.84216 -0.3512,0.80134 -0.6734,1.61618 -0.9851,2.43477 -0.25,0.65557 -0.4888,1.3159 -0.7089,1.98268 -0.2537,0.76819 -0.4837,1.54478 -0.7049,2.32365 -0.2564,0.90171 -0.5022,1.80696 -0.7211,2.71912 -0.1578,0.65713 -0.3002,1.31839 -0.4268,1.98266 -0.1398,0.73311 -0.2629,1.46989 -0.3673,2.20927 -0.1541,1.0915 -0.2808,2.18743 -0.3817,3.28559 -0.1281,1.39442 -0.1811,2.79526 -0.2836,4.19195 -0.083,1.13566 -0.1109,2.27852 -0.2694,3.40554 -0.1136,0.8021 -0.2846,1.59571 -0.4856,2.37917 -0.1958,0.76444 -0.4275,1.52044 -0.7,2.25931 -0.285,0.7725 -0.6203,1.52527 -0.9757,2.26594 -0.3516,0.73331 -0.711,1.46672 -1.143,2.15254 -0.4017,0.63736 -0.8708,1.22757 -1.3405,1.8128 -0.4819,0.60005 -0.9779,1.19012 -1.5139,1.73882 -0.5519,0.56502 -1.142,1.09087 -1.7474,1.59395 -0.5486,0.45579 -1.1124,0.89535 -1.7051,1.28785 -0.6437,0.42637 -1.3195,0.80109 -2.0035,1.15434 -0.769,0.39724 -1.5522,0.77024 -2.3569,1.08292 -0.6438,0.25024 -1.2969,0.48938 -1.9704,0.63228 -0.4937,0.10468 -1.0021,0.21133 -1.5041,0.1618 -0.3034,-0.0303 -0.615,-0.11057 -0.8755,-0.27451 -0.2583,-0.1623 -0.4691,-0.40866 -0.6329,-0.67159 -0.1831,-0.29479 -0.3226,-0.63267 -0.3679,-0.98 -0.038,-0.29233 0.011,-0.59823 0.087,-0.88061 0.072,-0.24697 0.1918,-0.48462 0.35,-0.68421 0.1765,-0.22293 0.4033,-0.40778 0.6471,-0.54697 0.5425,-0.30944 1.1754,-0.40414 1.7618,-0.61013 0.7707,-0.27069 1.5656,-0.47908 2.3086,-0.82241 0.7027,-0.32449 1.3659,-0.7372 2.0164,-1.16206 0.5637,-0.36798 1.1083,-0.76924 1.63,-1.19813 0.4372,-0.35914 0.8505,-0.74893 1.2535,-1.14845 0.3598,-0.35709 0.7127,-0.72388 1.0385,-1.11463 0.3751,-0.44945 0.7277,-0.92009 1.0515,-1.41038 0.4265,-0.64601 0.8184,-1.31816 1.1694,-2.01133 0.3141,-0.62065 0.597,-1.26018 0.8348,-1.91626 0.2642,-0.72956 0.4827,-1.47854 0.6537,-2.23729 0.1982,-0.8793 0.328,-1.77526 0.4286,-2.6722 0.1583,-1.40984 0.1764,-2.83286 0.2744,-4.24853 0.084,-1.20896 0.1408,-2.42064 0.2681,-3.62549 0.058,-0.54984 0.1439,-1.09634 0.2266,-1.64278 0.1041,-0.68135 0.2123,-1.36187 0.3371,-2.03932 0.1328,-0.72032 0.2788,-1.43798 0.4373,-2.15261 0.1808,-0.81557 0.3754,-1.62808 0.5863,-2.4359 0.2132,-0.81649 0.4327,-1.63181 0.6858,-2.43585 0.3189,-1.01176 0.6818,-2.00822 1.0487,-3.00239 0.2982,-0.80776 0.6231,-1.60461 0.9362,-2.40623 0.07,-0.18145 0.1367,-0.36506 0.2132,-0.5441 0.235,-0.55065 0.4889,-1.093 0.7546,-1.62867 0.5732,-1.15678 1.1776,-2.29763 1.8093,-3.42136 0.5917,-1.05243 1.1991,-2.0968 1.8544,-3.1081 0.6936,-1.07061 1.4362,-2.10724 2.1961,-3.12861 0.7454,-1.00192 1.508,-1.99191 2.3162,-2.94013 0.697,-0.81744 1.4376,-1.59442 2.1811,-2.36631 0.7816,-0.81117 1.5798,-1.60563 2.3962,-2.37918 0.6045,-0.57283 1.2236,-1.12917 1.8517,-1.67422 0.4492,-0.38991 0.9059,-0.7707 1.37,-1.14133 0.5366,-0.42842 1.0793,-0.84922 1.6348,-1.25094 0.6957,-0.50297 1.4081,-0.98119 2.125,-1.45062 0.5566,-0.36419 1.1241,-0.71057 1.6895,-1.05932 0.3981,-0.24539 0.7954,-0.49159 1.199,-0.72699 0.6839,-0.39898 1.3704,-0.79422 2.0708,-1.16121 0.842,-0.44128 1.694,-0.86417 2.5612,-1.25042 1.0002,-0.44558 2.0215,-0.83937 3.0431,-1.22944 1.0285,-0.39264 2.0605,-0.77735 3.1062,-1.11782 0.7592,-0.24716 1.5253,-0.47084 2.2973,-0.67093 0.9199,-0.2383 1.8483,-0.44171 2.779,-0.63007 1.0674,-0.21603 2.1388,-0.41201 3.2153,-0.57303 1.0827,-0.16202 2.169,-0.30884 3.2599,-0.39547 1.4859,-0.11797 2.9779,-0.16813 4.4685,-0.16865 1.5118,-6e-4 3.0254,0.0461 4.5326,0.16771 1.2167,0.098 2.4266,0.27849 3.6354,0.4526 0.692,0.0997 1.3834,0.2084 2.0707,0.33895 0.6258,0.11882 1.2482,0.25808 1.8687,0.40424 1.0484,0.247 2.0977,0.49489 3.1322,0.79851 0.9546,0.28008 1.8971,0.60383 2.8337,0.9429 0.9078,0.32867 1.8054,0.68776 2.6985,1.05731 0.7688,0.31808 1.5356,0.64212 2.2887,0.99814 0.8107,0.38335 1.6062,0.80057 2.3978,1.22439 0.6323,0.3385 1.2549,0.69619 1.8779,1.05268 0.1522,0.0871 0.3027,0.17698 0.4541,0.26527 0.2925,0.17043 0.5905,0.33123 0.8779,0.51018 0.7338,0.45681 1.4493,0.94505 2.1615,1.43741 0.6519,0.45056 1.2987,0.9094 1.9319,1.38746 0.5361,0.40482 1.0577,0.82992 1.5803,1.25325 0.4371,0.35416 0.8769,0.70543 1.3009,1.0763 0.465,0.40656 0.917,0.829 1.3624,1.25851 0.8039,0.77536 1.5916,1.56883 2.3624,2.37923 0.7355,0.7729 1.4621,1.55568 2.1576,2.36716 0.5832,0.68045 1.1447,1.38135 1.6886,2.09599 0.6149,0.80774 1.2047,1.636 1.7782,2.4757 0.4821,0.70579 0.9503,1.42239 1.3971,2.15261 0.3784,0.61836 0.7291,1.25457 1.0867,1.88615 0.4184,0.73945 0.8479,1.47318 1.2395,2.22843 0.4531,0.87387 0.8812,1.76204 1.2825,2.66245 0.4284,0.96079 0.8234,1.93768 1.2007,2.92123 0.3654,0.95403 0.7081,1.91789 1.029,2.88904 0.2858,0.86367 0.5557,1.7333 0.7974,2.61109 0.2787,1.01194 0.5249,2.03344 0.7522,3.05903 0.2457,1.10836 0.4762,2.22117 0.6602,3.34223 0.1603,0.97689 0.278,1.96112 0.3864,2.94566 0.1143,1.03625 0.2256,2.07412 0.2777,3.11568 0.1645,3.28141 0.1075,6.5709 0.112,9.8567 0.011,4.07879 -0.028,8.15797 -0.1075,12.23595 -0.049,2.49326 -0.1369,4.98552 -0.2263,7.47754 -0.078,2.19092 -0.1692,4.38138 -0.2728,6.57113 -0.079,1.68112 -0.1736,3.36143 -0.2674,5.04174 -0.069,1.24644 -0.1417,2.49276 -0.2197,3.73869 -0.067,1.076 -0.1424,2.15137 -0.2149,3.22702 -0.073,1.09521 -0.1374,2.19129 -0.2234,3.28558 -0.063,0.80557 -0.069,1.62059 -0.2157,2.41456 -0.063,0.34041 -0.1268,0.69084 -0.2826,0.9977 -0.1278,0.25227 -0.3046,0.48658 -0.5204,0.6636 -0.2249,0.1847 -0.5022,0.29635 -0.7749,0.38955 -0.1928,0.0659 -0.3961,0.12206 -0.5994,0.11643 z m 10.6686,-14.6634 c -0.2198,0.2189 -0.6189,0.0438 -0.9141,-0.0353 -0.1971,-0.053 -0.3772,-0.16604 -0.545,-0.28547 -0.2012,-0.14322 -0.4173,-0.29251 -0.543,-0.50921 -0.1777,-0.30606 -0.2184,-0.68327 -0.2532,-1.03839 -0.1901,-1.93715 0.1834,-3.88961 0.2529,-5.83539 0.1471,-4.11535 0.302,-8.23138 0.3474,-12.34928 0.041,-3.53087 0.023,-7.06309 -0.063,-10.59315 -0.052,-2.21071 -0.1705,-4.41937 -0.281,-6.6278 -0.081,-1.62465 -0.1534,-3.25022 -0.2803,-4.87171 -0.088,-1.1352 -0.2019,-2.26858 -0.337,-3.39888 -0.1365,-1.14181 -0.2869,-2.28244 -0.4782,-3.41575 -0.1856,-1.10125 -0.4087,-2.19588 -0.6496,-3.28565 -0.1626,-0.73483 -0.3453,-1.46492 -0.5367,-2.19235 -0.089,-0.34157 -0.1858,-0.68151 -0.2873,-1.01962 -0.2504,-0.83543 -0.5122,-1.66747 -0.7928,-2.49256 -0.4269,-1.25554 -0.8678,-2.50692 -1.3551,-3.73871 -0.4465,-1.12833 -0.926,-2.24318 -1.436,-3.34221 -0.4804,-1.03478 -0.993,-2.05373 -1.5283,-3.05905 -0.4798,-0.90095 -0.9871,-1.78631 -1.5081,-2.66245 -0.3982,-0.66986 -0.8111,-1.3306 -1.2361,-1.98267 -0.3817,-0.58593 -0.7734,-1.16531 -1.1798,-1.73331 -0.6325,-0.88438 -1.2866,-1.75271 -1.958,-2.60576 -0.7163,-0.91013 -1.4423,-1.81348 -2.2082,-2.67933 -0.7644,-0.86427 -1.5699,-1.68917 -2.3794,-2.50798 -0.837,-0.84643 -1.6859,-1.68103 -2.5613,-2.48469 -0.7806,-0.71654 -1.5778,-1.41449 -2.3978,-2.08238 -0.9044,-0.73689 -1.8328,-1.44312 -2.779,-2.12162 -0.748,-0.53614 -1.5162,-1.04186 -2.2888,-1.53898 -0.5384,-0.34628 -1.0876,-0.67448 -1.635,-1.00525 -0.4519,-0.27328 -0.9018,-0.55095 -1.3621,-0.80895 -0.6635,-0.37179 -1.3389,-0.72085 -2.0163,-1.06436 -0.9733,-0.49338 -1.952,-0.97642 -2.9426,-1.43124 -0.7201,-0.33054 -1.4466,-0.6459 -2.18,-0.94263 -0.5402,-0.21853 -1.0896,-0.41208 -1.6347,-0.61661 -0.4538,-0.17027 -0.9045,-0.34999 -1.3624,-0.50837 -0.631,-0.21832 -1.2682,-0.41724 -1.9073,-0.60892 -0.9399,-0.2819 -1.8804,-0.56595 -2.8336,-0.79552 -1.1175,-0.2691 -2.2486,-0.47484 -3.3787,-0.6811 -0.815,-0.14879 -1.6319,-0.28835 -2.4522,-0.4012 -0.8594,-0.11818 -1.7213,-0.22208 -2.5859,-0.28859 -1.7767,-0.13661 -3.5588,-0.22501 -5.3405,-0.22622 -1.8004,0 -3.6026,0.0748 -5.3977,0.22125 -1.2583,0.10287 -2.5114,0.27056 -3.76,0.46132 -1.0477,0.16006 -2.0916,0.34771 -3.1279,0.57289 -1.1967,0.25998 -2.3858,0.55907 -3.5637,0.89748 -1.2854,0.36927 -2.5559,0.79329 -3.8198,1.23504 -0.9999,0.3494 -1.9949,0.71571 -2.9756,1.1188 -0.8273,0.34007 -1.6437,0.70965 -2.4522,1.09572 -0.8014,0.38274 -1.5912,0.79149 -2.376,1.20945 -0.5426,0.28898 -1.0759,0.59646 -1.6125,0.8972 -0.1973,0.11057 -0.3945,0.22101 -0.5906,0.33349 -0.2931,0.16806 -0.5844,0.33886 -0.8762,0.50987 -0.2879,0.16892 -0.5747,0.33948 -0.8617,0.50982 -0.2165,0.12845 -0.4374,0.24939 -0.6493,0.38606 -0.4042,0.26121 -0.7944,0.54552 -1.1848,0.82858 -0.5224,0.37889 -1.0351,0.77227 -1.5488,1.16401 -0.6573,0.50127 -1.3187,0.99718 -1.9619,1.51795 -0.7948,0.64393 -1.5837,1.29736 -2.3431,1.98578 -1.0671,0.96729 -2.1021,1.9732 -3.1063,3.01022 -0.9406,0.97183 -1.8518,1.97512 -2.7307,3.00692 -0.7191,0.84414 -1.4034,1.71975 -2.078,2.60232 -0.7097,0.92861 -1.4107,1.86543 -2.0705,2.83239 -0.6301,0.92327 -1.2332,1.86726 -1.8018,2.83241 -0.6756,1.14712 -1.3013,2.3255 -1.9097,3.51222 -0.5735,1.11854 -1.1214,2.25157 -1.6393,3.39885 -0.3125,0.69234 -0.6057,1.39406 -0.8848,2.10152 -0.3509,0.88944 -0.6809,1.7879 -0.9917,2.69308 -0.3857,1.1224 -0.7503,2.25301 -1.0829,3.39336 -0.2376,0.81456 -0.4491,1.6373 -0.6517,2.46184 -0.1247,0.50756 -0.2408,1.01751 -0.3474,1.52952 -0.1215,0.58311 -0.2294,1.16924 -0.3328,1.75604 -0.1526,0.86662 -0.2985,1.73473 -0.4248,2.60579 -0.1422,0.97947 -0.2832,1.95992 -0.375,2.94574 -0.1192,1.2805 -0.1568,2.56774 -0.2281,3.85202 -0.062,1.1139 -0.051,2.23379 -0.1729,3.34223 -0.071,0.64771 -0.1714,1.29459 -0.3276,1.92604 -0.1578,0.63746 -0.3603,1.26552 -0.6131,1.86942 -0.2544,0.60877 -0.5477,1.20494 -0.9044,1.75605 -0.437,0.6751 -0.9568,1.29299 -1.5007,1.87898 -0.5537,0.59655 -1.1432,1.16432 -1.7856,1.65661 -0.4713,0.36093 -0.9818,0.66795 -1.505,0.94147 -0.5264,0.27517 -1.074,0.51117 -1.635,0.69904 -0.5234,0.17535 -1.0565,0.35915 -1.6053,0.39639 -0.3904,0.0265 -0.8001,0.0144 -1.1667,-0.12542 -0.3095,-0.11816 -0.5943,-0.32731 -0.8148,-0.58121 -0.2096,-0.24137 -0.3735,-0.54083 -0.4488,-0.85597 -0.081,-0.33961 -0.073,-0.71115 0.011,-1.0495 0.094,-0.36367 0.2665,-0.72468 0.5253,-0.9886 0.3547,-0.36133 0.8671,-0.50769 1.3187,-0.72357 0.55,-0.26293 1.1479,-0.41249 1.6893,-0.69376 0.5264,-0.2736 1.0381,-0.58741 1.5039,-0.96071 0.4701,-0.3767 0.9118,-0.80057 1.287,-1.27792 0.3837,-0.48867 0.706,-1.03311 0.9683,-1.60139 0.2579,-0.55869 0.4557,-1.15148 0.5845,-1.75606 0.1618,-0.76001 0.1711,-1.54677 0.2301,-2.3226 0.08,-1.05577 0.097,-2.11587 0.1679,-3.17226 0.074,-1.07764 0.1563,-2.15483 0.2672,-3.22892 0.095,-0.90865 0.2065,-1.81543 0.3374,-2.7191 0.1289,-0.8905 0.2785,-1.77791 0.4412,-2.66244 0.1674,-0.90973 0.3486,-1.81703 0.5505,-2.7191 0.1615,-0.72131 0.3359,-1.43966 0.5286,-2.15264 0.266,-0.98443 0.5597,-1.96095 0.8662,-2.93277 0.3809,-1.20798 0.7718,-2.4133 1.2078,-3.60114 0.289,-0.78751 0.6067,-1.56347 0.9323,-2.33554 0.3007,-0.71298 0.6208,-1.41719 0.9427,-2.12027 0.3908,-0.85428 0.7772,-1.71143 1.2002,-2.54915 0.3837,-0.75971 0.7977,-1.50281 1.2128,-2.2446 0.3198,-0.57153 0.6507,-1.13651 0.9844,-1.69948 0.3534,-0.59627 0.7033,-1.19517 1.078,-1.77737 0.6319,-0.98112 1.2928,-1.94222 1.9714,-2.88906 0.7019,-0.97894 1.4248,-1.94207 2.1712,-2.885 0.5644,-0.71329 1.1524,-1.40653 1.7437,-2.09597 0.4891,-0.57018 0.9753,-1.14382 1.4919,-1.68724 0.8241,-0.86696 1.6901,-1.69077 2.5614,-2.50663 0.988,-0.92464 1.9904,-1.8332 3.0217,-2.70539 0.7815,-0.6611 1.5889,-1.28922 2.3976,-1.91446 0.6924,-0.53537 1.3843,-1.07288 2.101,-1.5727 0.4801,-0.33468 0.9806,-0.63628 1.4712,-0.95389 0.5444,-0.35233 1.0805,-0.71869 1.6338,-1.05587 1.1097,-0.67645 2.2346,-1.32716 3.3787,-1.93927 1.2892,-0.68982 2.6005,-1.33638 3.9246,-1.95156 0.8263,-0.38389 1.6639,-0.74135 2.5067,-1.08475 0.5406,-0.22027 1.0854,-0.43015 1.6348,-0.62555 0.5768,-0.20506 1.1615,-0.38628 1.7437,-0.57364 0.5984,-0.19253 1.1966,-0.38562 1.7984,-0.56555 0.6127,-0.18314 1.2266,-0.36188 1.8449,-0.523 0.8676,-0.2261 1.7399,-0.43394 2.6156,-0.62252 1.07,-0.23023 2.1439,-0.4421 3.2234,-0.62113 1.0856,-0.1801 2.1753,-0.33963 3.2695,-0.45536 1.3705,-0.14487 2.7456,-0.24861 4.1223,-0.2985 1.7064,-0.062 3.4159,-0.0575 5.1225,0 1.2798,0.0426 2.5589,0.12965 3.8336,0.25516 1.1483,0.11294 2.2932,0.26594 3.4333,0.44793 1.2957,0.20694 2.587,0.44696 3.8689,0.73183 1.1961,0.26578 2.3832,0.57606 3.5627,0.91129 1.1347,0.32246 2.2636,0.66928 3.3787,1.05754 1.1502,0.40042 2.2897,0.83513 3.4124,1.31092 1.3266,0.56207 2.6305,1.1817 3.9237,1.82183 1.0664,0.52798 2.116,1.09188 3.1607,1.66431 0.5016,0.27481 1.0011,0.55407 1.4914,0.84982 0.2948,0.17782 0.5804,0.37184 0.8718,0.55582 0.2771,0.17484 0.5584,0.3421 0.8331,0.52092 0.515,0.33531 1.0262,0.67744 1.5275,1.03451 0.9297,0.66253 1.8435,1.34935 2.7432,2.05463 0.9786,0.76689 1.9496,1.54569 2.8868,2.36606 0.9527,0.83403 1.8808,1.69956 2.7791,2.59605 1.0623,1.06018 2.0839,2.1643 3.0838,3.28754 0.8426,0.94654 1.6663,1.91219 2.4556,2.90691 0.6225,0.78485 1.2152,1.59512 1.7967,2.41315 0.5834,0.82083 1.1552,1.65123 1.6967,2.50232 0.6439,1.01235 1.2588,2.045 1.8438,3.09509 0.7637,1.37121 1.4802,2.77084 2.1725,4.18214 0.4831,0.98483 0.942,1.98261 1.3817,2.98891 0.2699,0.61728 0.5294,1.23951 0.7703,1.86938 0.4006,1.04699 0.7693,2.10694 1.1216,3.17232 0.3723,1.12506 0.7292,2.25618 1.0472,3.39889 0.3038,1.09102 0.5661,2.19424 0.8223,3.29827 0.2141,0.92167 0.4203,1.84569 0.5976,2.77569 0.1247,0.65374 0.2316,1.3112 0.3279,1.97004 0.1265,0.86608 0.2401,1.73465 0.3284,2.60577 0.1435,1.41289 0.2314,2.83139 0.3276,4.24865 0.1075,1.5851 0.1979,3.17146 0.2779,4.75832 0.094,1.86348 0.1915,3.72718 0.236,5.59254 0.085,3.58668 0.081,7.17541 0.058,10.76308 -0.023,3.15916 -0.059,6.31897 -0.1759,9.47586 -0.05,1.36079 -0.1481,2.71927 -0.2253,4.07867 -0.067,1.17748 -0.093,2.35868 -0.2063,3.53223 -0.069,0.71707 0,1.48692 -0.2954,2.14061 -0.1265,0.28159 -0.3483,0.52485 -0.5991,0.69528 -0.32,0.21731 -0.866,0.0522 -1.09,0.37289 0,0 0,0 0,0 z m -132.756,-35.64167 c -0.1742,-0.008 -0.3457,-0.0598 -0.5099,-0.12012 -0.2391,-0.0883 -0.4851,-0.18477 -0.6814,-0.3512 -0.2235,-0.18955 -0.4247,-0.4309 -0.5316,-0.70873 -0.2723,-0.70718 -0.1952,-1.51172 -0.2164,-2.27267 -0.038,-1.33876 0.077,-2.67796 0.1589,-4.01458 0.068,-1.11594 0.1623,-2.23028 0.2762,-3.34221 0.095,-0.92745 0.2071,-1.85313 0.3387,-2.7758 0.1731,-1.2125 0.3593,-2.42388 0.5931,-3.62539 0.2958,-1.52083 0.6417,-3.03172 1.0234,-4.53191 0.3583,-1.40818 0.7548,-2.80668 1.189,-4.19188 0.3166,-1.01039 0.6729,-2.00734 1.0322,-3.00239 0.2953,-0.81689 0.6032,-1.62889 0.9228,-2.43583 0.2333,-0.58914 0.4739,-1.17535 0.726,-1.7561 0.2479,-0.57117 0.5077,-1.13694 0.7736,-1.69941 0.4587,-0.97016 0.9316,-1.9333 1.4176,-2.88907 0.4837,-0.95148 0.97,-1.90233 1.4914,-2.8324 0.5438,-0.97047 1.1127,-1.92641 1.706,-2.86534 0.9169,-1.45082 1.8755,-2.87387 2.8628,-4.27433 0.7563,-1.07272 1.533,-2.13077 2.3432,-3.16053 0.5714,-0.72629 1.1684,-1.43119 1.7744,-2.12685 0.7154,-0.82098 1.4477,-1.62687 2.1967,-2.41469 0.6613,-0.69516 1.3415,-1.37098 2.028,-2.03934 0.6921,-0.67403 1.3926,-1.33944 2.1082,-1.98699 0.623,-0.56396 1.2566,-1.11599 1.9019,-1.65259 0.7575,-0.63008 1.5289,-1.24275 2.3115,-1.83911 1.199,-0.91359 2.4157,-1.80303 3.6511,-2.66283 1.031,-0.7175 2.0708,-1.42331 3.138,-2.08199 0.8736,-0.53938 1.77,-1.0386 2.67,-1.52974 1.0965,-0.59847 2.2004,-1.18406 3.324,-1.72601 1.1474,-0.55354 2.3098,-1.07638 3.4875,-1.55698 1.4899,-0.60791 3.0009,-1.16221 4.5233,-1.6764 1.6386,-0.55333 3.2898,-1.07031 4.959,-1.5147 1.3329,-0.3549 2.681,-0.64928 4.0325,-0.91852 1.2111,-0.24117 2.4303,-0.44088 3.6512,-0.62369 1.0144,-0.15196 2.0314,-0.28894 3.0517,-0.39302 1.0149,-0.10344 2.0329,-0.17762 3.0515,-0.22995 1.3611,-0.0704 2.7241,-0.11295 4.087,-0.11249 1.3263,5.3e-4 2.6537,0.0363 3.978,0.11215 1.1103,0.0636 2.2175,0.1764 3.3243,0.28904 0.6367,0.0651 1.2727,0.13772 1.9072,0.22227 0.6372,0.0849 1.2728,0.18232 1.9072,0.28578 1.092,0.17807 2.1848,0.35642 3.2697,0.57637 1.1503,0.23336 2.2952,0.49725 3.4332,0.78818 0.9503,0.24298 1.8941,0.51412 2.8335,0.79914 0.7126,0.21609 1.4216,0.44566 2.1254,0.69059 1.0061,0.35013 2.0041,0.72509 2.9972,1.11335 1.0422,0.40739 2.0784,0.83112 3.1059,1.27589 0.8057,0.34871 1.6063,0.71025 2.3981,1.09141 0.8438,0.40632 1.6824,0.82629 2.5065,1.27405 0.6905,0.37511 1.362,0.78713 2.0418,1.18258 0.2821,0.16428 0.5655,0.32706 0.8462,0.49438 0.2106,0.12547 0.4213,0.2509 0.6286,0.38206 0.7067,0.44725 1.4002,0.91624 2.0963,1.3805 0.6669,0.44462 1.3415,0.8776 1.9933,1.34565 0.5562,0.3995 1.091,0.83006 1.6347,1.24766 0.4263,0.3276 0.8565,0.65043 1.2765,0.98671 0.5891,0.47163 1.166,0.95906 1.7438,1.44534 0.6796,0.57216 1.3607,1.14283 2.0265,1.73238 0.2764,0.24506 0.5476,0.49672 0.8173,0.75004 0.3823,0.35914 0.7631,0.71987 1.1342,1.09119 0.8018,0.80236 1.5876,1.62233 2.3596,2.45571 0.9581,1.03445 1.9192,2.06823 2.819,3.15744 0.9673,1.17075 1.87,2.39755 2.7687,3.62552 0.7484,1.02279 1.4738,2.06373 2.1838,3.11559 0.2643,0.39167 0.5213,0.78878 0.7726,1.18959 0.3748,0.59802 0.7403,1.20243 1.0964,1.8127 0.5125,0.87902 1.017,1.76355 1.4965,2.66252 0.5569,1.04467 1.0956,2.10046 1.6019,3.17229 0.7229,1.52889 1.4182,3.07323 2.0491,4.6451 0.6803,1.69503 1.3105,3.41328 1.87,5.15494 0.5992,1.86597 1.1247,3.75831 1.5897,5.66482 0.4386,1.79781 0.8193,3.61218 1.1302,5.43821 0.2525,1.48299 0.4317,2.979 0.5962,4.47517 0.1409,1.28094 0.2526,2.56567 0.3339,3.85209 0.074,1.15034 0.1682,2.30309 0.139,3.45545 -0.019,0.73945 0.084,1.53134 -0.2012,2.20931 -0.135,0.31972 -0.3953,0.5837 -0.6735,0.78058 -0.2896,0.20499 -0.6383,0.33124 -0.9857,0.38139 -0.3055,0.0438 -0.6304,0.0257 -0.922,-0.0771 -0.2863,-0.10118 -0.5516,-0.2863 -0.7603,-0.51291 -0.2252,-0.24424 -0.3926,-0.55287 -0.4947,-0.8734 -0.1818,-0.57139 -0.1372,-1.1949 -0.1839,-1.79448 -0.085,-1.09332 -0.1075,-2.19093 -0.1744,-3.2856 -0.063,-1.03911 -0.1197,-2.07946 -0.2197,-3.11559 -0.087,-0.89022 -0.2014,-1.77732 -0.3264,-2.66244 -0.1611,-1.13643 -0.3402,-2.27034 -0.5456,-3.39888 -0.1971,-1.08103 -0.4145,-2.15837 -0.659,-3.22892 -0.1648,-0.72189 -0.349,-1.43905 -0.5445,-2.15263 -0.2397,-0.87387 -0.5014,-1.74108 -0.7703,-2.60581 -0.3419,-1.10038 -0.6885,-2.19975 -1.0712,-3.28564 -0.3159,-0.89573 -0.6565,-1.78207 -1.0105,-2.66244 -0.2836,-0.70466 -0.581,-1.40336 -0.8909,-2.09591 -0.4043,-0.90367 -0.8213,-1.80151 -1.2629,-2.68619 -0.6106,-1.22393 -1.2508,-2.43252 -1.9165,-3.6255 -0.5401,-0.9682 -1.1073,-1.92026 -1.6844,-2.86529 -0.3924,-0.64266 -0.7902,-1.2825 -1.2093,-1.90675 -0.5691,-0.8468 -1.1649,-1.67407 -1.7712,-2.49256 -0.6906,-0.93212 -1.4029,-1.84727 -2.1255,-2.753 -0.6138,-0.76954 -1.2275,-1.54048 -1.8774,-2.27759 -0.8416,-0.95435 -1.7204,-1.87388 -2.6157,-2.77423 -0.8794,-0.88403 -1.7912,-1.73285 -2.7054,-2.57822 -0.4312,-0.39883 -0.8718,-0.78686 -1.3108,-1.17642 -0.2893,-0.25655 -0.5751,-0.51749 -0.8721,-0.76456 -0.6802,-0.56594 -1.3791,-1.10825 -2.083,-1.64271 -0.9682,-0.73532 -1.9484,-1.45374 -2.9427,-2.15107 -0.8915,-0.6254 -1.7951,-1.23308 -2.7093,-1.82255 -0.5923,-0.38198 -1.1904,-0.75519 -1.7982,-1.11048 -0.6495,-0.37963 -1.3102,-0.7383 -1.974,-1.0905 -0.9187,-0.48751 -1.841,-0.9693 -2.7791,-1.41521 -0.9833,-0.46724 -1.9809,-0.90253 -2.985,-1.31939 -0.9906,-0.41117 -1.9904,-0.79906 -2.9972,-1.16515 -0.9197,-0.33442 -1.846,-0.64967 -2.7794,-0.94156 -1.0465,-0.32737 -2.1025,-0.6226 -3.1605,-0.90777 -0.7599,-0.20474 -1.5224,-0.39921 -2.2888,-0.57667 -0.5426,-0.1257 -1.0875,-0.24251 -1.6346,-0.34568 -1.1222,-0.21148 -2.248,-0.40505 -3.3787,-0.55996 -1.5671,-0.21473 -3.1394,-0.39763 -4.7164,-0.51178 -1.5956,-0.11549 -3.1958,-0.17578 -4.7953,-0.17465 -1.5171,0 -3.0342,0.0688 -4.5478,0.17184 -1.3473,0.0919 -2.6912,0.23653 -4.0325,0.39758 -0.9471,0.11378 -1.8927,0.24287 -2.8336,0.40137 -0.7849,0.13203 -1.5656,0.28733 -2.3433,0.45751 -1.0952,0.23979 -2.1839,0.51089 -3.2698,0.79361 -0.9486,0.24705 -1.8917,0.51573 -2.8335,0.78872 -0.4554,0.13197 -0.9116,0.26146 -1.3623,0.41065 -0.6781,0.22449 -1.3487,0.47274 -2.0163,0.72832 -1.0977,0.42025 -2.1869,0.86397 -3.2698,1.32371 -0.8229,0.34953 -1.6433,0.70653 -2.4523,1.09041 -0.6613,0.31399 -1.3136,0.64883 -1.9617,0.99158 -0.6966,0.3686 -1.3878,0.74936 -2.0706,1.14463 -0.7715,0.44662 -1.5302,0.91594 -2.2888,1.38574 -0.7126,0.4416 -1.4313,0.87441 -2.1254,1.34685 -0.6821,0.46436 -1.3403,0.96568 -2.0019,1.46083 -0.8208,0.6141 -1.6374,1.23482 -2.4411,1.87245 -0.8143,0.64581 -1.6195,1.30413 -2.4122,1.97807 -0.6118,0.5204 -1.2223,1.04377 -1.8091,1.5945 -0.7996,0.75026 -1.566,1.53774 -2.3295,2.3272 -0.7751,0.80164 -1.548,1.6069 -2.2854,2.44597 -0.3246,0.36918 -0.625,0.76048 -0.9404,1.138 -0.2538,0.30354 -0.5137,0.60178 -0.7662,0.90632 -0.2787,0.33561 -0.5576,0.67091 -0.8266,1.01463 -0.2793,0.35656 -0.5496,0.72054 -0.8175,1.08633 -0.4789,0.65436 -0.9528,1.31274 -1.4115,1.98269 -0.7887,1.15227 -1.5652,2.31442 -2.3033,3.50221 -0.6921,1.11452 -1.3595,2.24672 -1.9919,3.39886 -0.5511,1.00376 -1.0668,2.0283 -1.5694,3.05897 -0.4193,0.85978 -0.8178,1.73047 -1.2059,2.60577 -0.3256,0.73425 -0.6442,1.47195 -0.9411,2.21905 -0.4166,1.04765 -0.8157,2.10334 -1.1779,3.17228 -0.4358,1.28684 -0.8283,2.5897 -1.1963,3.89899 -0.3217,1.14407 -0.6025,2.30021 -0.8843,3.45547 -0.1561,0.64022 -0.313,1.28042 -0.4469,1.9261 -0.1399,0.67636 -0.2586,1.3575 -0.3717,2.03931 -0.1593,0.9604 -0.3111,1.92261 -0.4322,2.889 -0.1344,1.07326 -0.2404,2.15044 -0.3265,3.2289 -0.103,1.28202 -0.1593,2.56761 -0.2267,3.85212 -0.045,0.86829 -0.033,1.74108 -0.1203,2.6058 -0.036,0.35151 -0.035,0.72108 -0.1668,1.04617 -0.1188,0.28841 -0.3155,0.54802 -0.545,0.75293 -0.2618,0.23395 -0.5858,0.39339 -0.9124,0.5117 -0.1982,0.0721 -0.4103,0.11988 -0.6202,0.11479 z m -13.1514,-31.82592 c -0.093,-0.008 -0.05,-0.18811 -0.042,-0.2832 0.011,-0.0994 0,-0.29221 0.094,-0.28328 0.092,0.008 0.049,0.18813 0.041,0.28328 -0.011,0.0994 0,0.29212 -0.095,0.2832 z m 0.6238,-1.72936 c -0.094,-0.0127 -0.08,-0.19076 -0.067,-0.2891 0.021,-0.15674 0.067,-0.43749 0.2176,-0.41716 0.095,0.0128 0.079,0.19077 0.067,0.28911 -0.022,0.15673 -0.066,0.43749 -0.2174,0.41715 z m 3.0202,-7.69976 c -0.033,0.008 -0.067,-0.0363 -0.067,-0.0689 6e-4,-0.094 0.1238,-0.25174 0.1969,-0.19561 0.076,0.059 -0.036,0.2493 -0.1308,0.26467 z m 0.5918,-1.1951 c -0.056,0.096 -0.1206,0.31759 -0.2134,0.25768 -0.1516,-0.0981 0.1184,-0.35284 0.2131,-0.50988 0.058,-0.0958 0.1208,-0.31753 0.2133,-0.25763 0.1517,0.0981 -0.1182,0.35278 -0.213,0.50983 z"
         id="path1" /><text
         xml:space="preserve"
         style="font-weight:bold;font-size:80.6655px;line-height:0;font-family:STIXNonUnicode;-inkscape-font-specification:'STIXNonUnicode, Bold';writing-mode:lr-tb;direction:ltr;fill:#ef4444;fill-opacity:1;stroke:none;stroke-width:0.408778"
         x="4062.5471"
         y="222.79007"
         id="text3"
         transform="scale(0.98523265,1.0149887)"><tspan
           id="tspan3"
           x="4062.5471"
           y="222.79007"
           style="font-style:normal;font-variant:normal;font-weight:600;font-stretch:normal;font-size:80.6655px;font-family:'KOLIVO Neo Sans';-inkscape-font-specification:'KOLIVO Neo Sans, Semi-Bold';font-variant-ligatures:normal;font-variant-caps:normal;font-variant-numeric:normal;font-variant-east-asian:normal;stroke:none;stroke-width:0.408778">ID</tspan></text></g></g></svg>
