<?xml version="1.0" encoding="UTF-8" standalone="no"?>
<svg
   id="Calque_2"
   version="1.1"
   viewBox="0 0 32 32"
   sodipodi:docname="kolivo-k-white-on-navy-tm.svg"
   inkscape:version="1.4.3 (0d15f75, 2025-12-25)"
   width="32"
   height="32"
   inkscape:export-filename="/Users/louhebert/Downloads/MASTER - 2026 - KOLIVO™ BRAND ASSETS /EXPORTS/jpg/32X32/kolivo-k-white-on-navy-tm-32x32.png"
   inkscape:export-xdpi="96"
   inkscape:export-ydpi="96"
   xmlns:inkscape="http://www.inkscape.org/namespaces/inkscape"
   xmlns:sodipodi="http://sodipodi.sourceforge.net/DTD/sodipodi-0.dtd"
   xmlns="http://www.w3.org/2000/svg"
   xmlns:svg="http://www.w3.org/2000/svg">
  <sodipodi:namedview
     id="namedview1"
     pagecolor="#172638"
     bordercolor="#000000"
     borderopacity="0.25"
     inkscape:showpageshadow="2"
     inkscape:pageopacity="0.0"
     inkscape:pagecheckerboard="0"
     inkscape:deskcolor="#d1d1d1"
     inkscape:zoom="1.8073807"
     inkscape:cx="57.541835"
     inkscape:cy="146.62102"
     inkscape:window-width="1728"
     inkscape:window-height="975"
     inkscape:window-x="0"
     inkscape:window-y="33"
     inkscape:window-maximized="0"
     inkscape:current-layer="Calque_2"
     inkscape:export-bgcolor="#172638ff">
    <inkscape:page
       x="0"
       y="0"
       width="32"
       height="32"
       id="page2"
       margin="0"
       bleed="0" />
  </sodipodi:namedview>
  <defs
     id="defs1">
    <style
       id="style1">
      .st0 {
        font-family: KOLIVO-Neo-Sans-Bold, 'KOLIVO Neo Sans';
        font-size: 63.68px;
        font-weight: 700;
      }
    </style>
  </defs>
  <g
     id="g1"
     transform="matrix(0.07095508,0,0,0.07095508,2.320368,0.99291766)"
     style="fill:#fafafa;fill-opacity:1;stroke-width:14.0935">
    <path
       id="k_main"
       d="M 34.208984,0.02148438 C 31.746875,0.10912109 29.288359,0.48039064 26.880859,1.1503906 11.030859,5.5503906 -0.06,19.050781 0,38.800781 l 0.2890625,90.878909 c -0.17,13.99 -0.1687495,15.98953 23.0312495,13.26953 v 0.0117 c 24.4,-2.86 46.009297,-16.0918 46.779297,-44.591799 0.57,-21.24 0.74,-42.659219 -0.25,-63.949219 C 68.834609,12.676172 51.44375,-0.59197266 34.208984,0.02148438 Z M 276.21094,0.265625 c -7.60625,0.5675 -13.15086,2.1999219 -19.38086,6.2949219 -4.81,3.16 -9.14094,7.7692191 -13.21094,14.4492191 -40.96,96.210004 -113.68984,145.711174 -208.589843,149.951174 -1.62,0.07 -3.238359,0.27922 -4.818359,0.69922 C 13.470937,176.07016 0.33,192.16064 0.5,212.14062 c 0.48,14.99001 -1.08,134.72969 0,177.42969 2.99,41.68 62.940703,45.57899 69.470703,4.95899 1.47,-12.17 0.440156,-138.32008 0.910156,-152.33008 1.01,-6.89 19.919532,-6.27992 25.269532,-8.41992 78.079999,-13.19 147.540079,-67.35868 190.330079,-140.888675 l 0.10937,-0.191406 h 0.01 v -0.0098 c 13.47,-23.21 23.77,-47.329297 34.25,-72.279297 5.4,-10.31 -1.31867,-19.920781 -12.88867,-20.050781 -14.475,-0.165 -24.14375,-0.66125 -31.75,-0.09375 z m 85.49023,0.71484375 c -0.51878,0 -1.01722,0.12613935 -1.49609,0.38085935 -0.43897,0.2122667 -0.79683,0.5745444 -1.07617,1.0839844 -0.23944,0.4669867 -0.35938,1.0595433 -0.35938,1.78125 V 25.496094 c 0,1.01888 0.25857,1.805528 0.77735,2.357422 0.51877,0.551893 1.23645,0.826171 2.15429,0.826172 1.9155,-10e-7 2.875,-1.060928 2.875,-3.183594 V 13.212891 l 5.625,9.992187 c 0.27934,0.424533 0.57919,0.742812 0.89844,0.955078 0.31925,0.169814 0.67906,0.253906 1.07812,0.253906 0.43897,0 0.79683,-0.08409 1.07618,-0.253906 0.31925,-0.212266 0.61909,-0.530545 0.89843,-0.955078 l 5.62696,-9.99414 v 12.285156 c 0,1.01888 0.23987,1.805528 0.71875,2.357422 0.51878,0.551893 1.25709,0.826171 2.21484,0.826172 1.9155,-10e-7 2.87305,-1.060928 2.87305,-3.183594 V 4.2265625 c 0,-1.1037867 -0.29985,-1.9085287 -0.89844,-2.4179687 -0.55869,-0.5518934 -1.23703,-0.82812505 -2.03516,-0.82812505 -0.87793,0 -1.55628,0.17013895 -2.03515,0.50976565 -0.43897,0.2971733 -0.87744,0.8476835 -1.31641,1.6542968 L 372.20508,16.076172 365.05469,3.1445312 C 364.61572,2.3379179 364.15661,1.7874077 363.67773,1.4902344 363.23877,1.1506077 362.57911,0.98046875 361.70117,0.98046875 Z M 335.96289,1.4257812 c -0.91784,0 -1.63747,0.2542319 -2.15625,0.7636719 -0.47887,0.4669867 -0.7168,1.189589 -0.7168,2.1660157 0,0.9339733 0.23793,1.6546224 0.7168,2.1640624 0.51878,0.5094401 1.23841,0.7636719 2.15625,0.7636719 h 5.02734 V 24.986328 c 0,1.188693 0.27921,2.101481 0.83789,2.738281 0.5986,0.6368 1.43816,0.955079 2.51563,0.955079 1.11737,0 1.95499,-0.318279 2.51367,-0.955079 0.59859,-0.6368 0.89649,-1.549588 0.89649,-2.738281 V 7.2832031 h 5.02929 c 0.91784,0 1.61683,-0.2542318 2.09571,-0.7636719 0.51878,-0.50944 0.77734,-1.2300891 0.77734,-2.1640624 0,-0.9764267 -0.25856,-1.699029 -0.77734,-2.1660157 -0.47888,-0.50944 -1.17787,-0.7636719 -2.09571,-0.7636719 z"
       inkscape:label="k_main"
       fill="#172638"
       style="fill:#fafafa;fill-opacity:1;stroke-width:14.0935" />
    <path
       id="k_leg"
       d="m 168.5,250.36 c -2.94,1.95 -6.77,4.04 -6.49,8.78 0.12,2.1 1.34,4.45 2.42,6.17 1.17,1.9 71.46,97.95 91.96,126.26 9.83,13.51 25.29,22.55 41.8,22.42 9.62,-0.06 27.66,-0.12 37.15,-0.17 4.16,-0.1 4.16,0.16 6.85,-0.22 4.62,-0.84 7.48,-4.51 8.47,-8.79 0.93,-4.05 -0.1,-8.31 -2.5,-11.7 -17.28,-24.48 -105.24,-142.68 -121.41,-164.19 -2.81,-3.74 -7.9,-5.01 -12.07,-2.9 -0.04,0.02 -0.08,0.04 -0.12,0.06 -16.4,8.38 -17.51,8.82 -45.9,24.19"
       inkscape:label="k_leg"
       fill="#172638"
       style="fill:#fafafa;fill-opacity:1;stroke-width:14.0935" />
  </g>
</svg>
