<?xml version="1.0" encoding="UTF-8" standalone="no"?>
<svg
   width="3802.0692"
   height="503.0"
   viewBox="0 0 3802.0692 503.0"
   version="1.1"
   id="svg2"
   sodipodi:docname="kolivo-studio-wordmark-tm-accent.svg"
   xmlns:inkscape="http://www.inkscape.org/namespaces/inkscape"
   xmlns:sodipodi="http://sodipodi.sourceforge.net/DTD/sodipodi-0.dtd"
   xmlns="http://www.w3.org/2000/svg"
   xmlns:svg="http://www.w3.org/2000/svg">
  <defs
     id="defs2" />
  <g
     id="kolivo_wordmark"
     transform="translate(40,40)">
    <defs
       id="defs1">
      <style
         id="style1">
      .st0 {
        font-family: KOLIVO-Neo-Sans-Bold, 'KOLIVO Neo Sans';
        font-size: 60px;
        font-weight: 700;
      }
    </style>
    </defs>
    <sodipodi:namedview
       id="namedview9"
       bordercolor="#000000"
       borderopacity="0.25"
       inkscape:current-layer="Calque_1"
       inkscape:cx="1138.8462"
       inkscape:cy="211.5"
       inkscape:deskcolor="#d1d1d1"
       inkscape:pagecheckerboard="0"
       inkscape:pageopacity="0.0"
       inkscape:showpageshadow="2"
       inkscape:window-height="245"
       inkscape:window-maximized="0"
       inkscape:window-width="944"
       inkscape:window-x="0"
       inkscape:window-y="34"
       inkscape:zoom="0.061465721"
       pagecolor="#ffffff" />
    <path
       id="path1"
       d="M724.12,30.08C690.82,8.46,654.06.16,615.27,0c-110.94-.46-201.72,88.04-201.27,212.84.33,89.1,49.41,164.89,124.69,195.06,86.32,34.6,191.34,9.8,246.03-74.9,37.67-58.34,43.82-133.75,20.77-200.25-15.38-44.36-44.57-78.76-81.38-102.66h.01ZM616.35,357.46c-72.93,0-132.06-65.36-132.06-145.98s59.12-145.98,132.06-145.98,132.06,65.36,132.06,145.98-59.12,145.98-132.06,145.98Z"
       fill="#172638" />
    <path
       id="path2"
       d="M2060.13,0c-62.3-.07-120.71,23-161.58,75.07-51.72,65.89-60.35,161.37-21.89,238.14,26.32,52.53,71.86,88.52,125.1,102.53,89.59,23.58,189.3-10.55,235.07-100.9,32-63.17,32.28-142.61.13-205.97C2201.43,38.85,2132.08.1,2060.13,0ZM2056.9,357.55c-73.59,0-133.25-65.38-133.25-146.03s59.66-146.03,133.25-146.03,133.25,65.38,133.25,146.03-59.66,146.03-133.25,146.03Z"
       fill="#172638" />
    <path
       id="path3"
       d="M1798.55.38l-32.97-.38c-15.27,2.11-27.21,10.43-33.57,26.47l-117.23,296.92-114.94-293.79c-6.15-15.72-15.44-26.1-30.78-29.54l-43.13.6c-4.66.06-10.36,10.52-8.29,15.77l108.43,275.51,42.03,105.03c8.66,21.65,25.98,25.42,44.96,26,22.67.69,38.22-6.97,47.57-30.67l107.78-273.12,39.78-100.19c1.44-3.63.85-10.29-.57-12.59-1.43-2.3-6.5-5.99-9.05-6.02h-.02Z"
       fill="#172638" />
    <path
       id="path4"
       d="M1174.45,356.95l-175.81-.43c-5.49-.01-9.94-4.89-9.95-10.9l-.3-307.45c-.02-22.43-19.95-36.61-38.2-34.03-17.97,1.03-32.21,15.67-32.2,36.15l.12,341.74c0,21.97,15.99,40.84,36.24,40.85l218.88.13c14.8,0,23.51-14.08,23.55-30.52,0-.29.02-.58.04-.87,1.51-15.58-6.96-34.63-22.38-34.67h0Z"
       fill="#172638" />
    <path
       id="path5"
       d="M286.6,92.69c13.47-23.21,23.77-47.33,34.25-72.28,5.4-10.31-1.32-19.92-12.89-20.05-28.95-.33-38.67-1.99-51.13,6.2-4.81,3.16-9.14,7.77-13.21,14.45-40.96,96.21-113.69,145.71-208.59,149.95-1.62.07-3.24.28-4.82.7C13.47,176.07.33,192.16.5,212.14c.48,14.99-1.08,134.73,0,177.43,2.99,41.68,62.94,45.58,69.47,4.96,1.47-12.17.44-138.32.91-152.33,1.01-6.89,19.92-6.28,25.27-8.42,78.08-13.19,147.54-67.36,190.33-140.89l.11-.19h0Z"
       fill="#172638" />
    <path
       id="path6"
       d="M1309.42,3.43c-14.85-.57-35.57,11.99-35.59,33.89l-.23,348.2c-.02,23.19,18.47,38.03,35.95,37.47,18.61-.6,33.87-16.36,33.92-39.17l.24-107.39-.31-234.24c-.03-22.6-14.75-38.02-33.99-38.75h.01Z"
       fill="#172638" />
    <path
       id="path7"
       d="M168.5,250.36c-2.94,1.95-6.77,4.04-6.49,8.78.12,2.1,1.34,4.45,2.42,6.17,1.17,1.9,71.46,97.95,91.96,126.26,9.83,13.51,25.29,22.55,41.8,22.42,9.62-.06,27.66-.12,37.15-.17,4.16-.1,4.16.16,6.85-.22,4.62-.84,7.48-4.51,8.47-8.79.93-4.05-.1-8.31-2.5-11.7-17.28-24.48-105.24-142.68-121.41-164.19-2.81-3.74-7.9-5.01-12.07-2.9-.04.02-.08.04-.12.06-16.4,8.38-17.51,8.82-45.9,24.19"
       fill="#172638" />
    <path
       id="path8"
       d="M23.32,142.96c24.4-2.86,46.01-16.09,46.78-44.59.57-21.24.74-42.66-.25-63.95C68.69,9.57,46.14-4.21,26.88,1.15,11.03,5.55-.06,19.05,0,38.8l.29,90.88c-.17,13.99-.17,15.99,23.03,13.27h0Z"
       fill="#172638" />
    <path
       d="m 28.98,-16.62 q -1.38,0 -2.16,-0.78 -0.78,-0.78 -0.78,-2.22 v -20.04 q 0,-1.02 0.36,-1.68 0.42,-0.72 1.08,-1.02 0.72,-0.36 1.5,-0.36 1.32,0 1.98,0.48 0.72,0.42 1.38,1.56 l 7.8,13.26 h -1.26 l 7.74,-13.26 q 0.66,-1.14 1.32,-1.56 0.72,-0.48 2.04,-0.48 1.2,0 2.04,0.78 0.9,0.72 0.9,2.28 v 20.04 q 0,3 -2.88,3 -1.44,0 -2.22,-0.78 -0.72,-0.78 -0.72,-2.22 V -33 h 1.08 l -6.72,11.22 q -0.42,0.6 -0.9,0.9 -0.42,0.24 -1.08,0.24 -0.6,0 -1.08,-0.24 -0.48,-0.3 -0.9,-0.9 L 30.78,-33 h 1.08 v 13.38 q 0,3 -2.88,3 z m -17.4,0 q -1.62,0 -2.52,-0.9 -0.84,-0.9 -0.84,-2.58 V -36.78 H 3.18 q -1.38,0 -2.16,-0.72 -0.72,-0.72 -0.72,-2.04 0,-1.38 0.72,-2.04 0.78,-0.72 2.16,-0.72 h 16.86 q 1.38,0 2.1,0.72 0.78,0.66 0.78,2.04 0,1.32 -0.78,2.04 -0.72,0.72 -2.1,0.72 H 15 v 16.68 q 0,1.68 -0.9,2.58 -0.84,0.9 -2.52,0.9 z"
       id="text1"
       class="st0"
       style="font-weight:700;font-size:60px;font-family:KOLIVO-Neo-Sans-Bold, 'KOLIVO Neo Sans';fill:#172638"
       transform="translate(2228.76 48.81)"
       aria-label="™" />
  </g>
  <path
     d="m 2541.3578,411.13175 q -16.3025,0 -31.5643,-2.77488 -15.2618,-2.42802 -28.7894,-7.63092 -13.5275,-5.2029 -24.2802,-12.83382 -4.5092,-3.12174 -6.5903,-7.63092 -1.7343,-4.50918 -1.0406,-8.6715 1.0406,-4.50918 3.8155,-7.63092 3.1217,-3.12174 7.284,-3.81546 4.1623,-0.69372 9.0184,2.77488 15.9555,10.75266 33.2985,15.6087 17.6899,4.85604 38.8484,4.85604 30.5236,0 44.7449,-11.09952 14.5681,-11.09952 14.5681,-29.13624 0,-14.91498 -10.4058,-23.23962 -10.4058,-8.6715 -35.0328,-13.52754 l -36.7672,-7.63092 q -32.6048,-6.9372 -48.9073,-22.89275 -15.9555,-15.95556 -15.9555,-42.66378 0,-16.30242 6.5903,-29.4831 6.5904,-13.52754 18.7305,-23.23962 12.1401,-9.71208 28.4425,-14.91498 16.6493,-5.2029 36.7671,-5.2029 21.5054,0 40.2358,5.89662 19.0773,5.89662 34.3391,17.343 4.1624,3.12174 5.5498,7.63092 1.3874,4.16232 0.3469,8.32464 -0.6938,4.16232 -3.8155,6.9372 -2.7749,2.77488 -7.2841,3.12174 -4.1623,0.34686 -9.3652,-3.12174 -13.8744,-9.71208 -28.4425,-13.8744 -14.5681,-4.50918 -31.9111,-4.50918 -17.6899,0 -30.8706,5.54976 -12.8338,5.54976 -20.1178,15.6087 -6.9372,9.71208 -6.9372,22.89276 0,15.95556 9.712,24.97392 9.7121,9.01836 32.6049,13.8744 l 36.4203,7.28406 q 34.686,7.28405 51.3353,22.54589 16.9961,14.91498 16.9961,40.23576 0,15.95556 -6.5903,28.78938 -6.2435,12.83382 -18.0368,22.19904 -11.7932,9.01836 -28.7893,14.22126 -16.9962,4.85604 -38.1546,4.85604 z m 199.0975,0 q -20.4647,0 -34.3391,-7.28406 -13.5276,-7.28406 -20.4648,-21.15846 -6.5903,-13.8744 -6.5903,-33.99228 V 263.3694 h -22.199 q -6.2435,0 -9.7121,-3.12174 -3.4686,-3.4686 -3.4686,-9.01836 0,-5.89662 3.4686,-9.01836 3.4686,-3.12174 9.7121,-3.12174 h 22.199 v -37.80774 q 0,-7.97778 4.1623,-11.79324 4.1623,-4.16232 11.7933,-4.16232 7.6309,0 11.4463,4.16232 4.1624,3.81546 4.1624,11.79324 v 37.80774 h 41.97 q 6.5904,0 10.059,3.12174 3.4686,3.12174 3.4686,9.01836 0,5.54976 -3.4686,9.01836 -3.4686,3.12174 -10.059,3.12174 h -41.97 v 82.55267 q 0,19.0773 7.9777,28.78938 7.9778,9.71208 26.3614,9.71208 6.5903,0 11.0995,-1.04058 4.5092,-1.38744 7.9778,-1.38744 3.1217,-0.34686 5.2029,2.08116 2.428,2.42802 2.428,9.01836 0,4.85604 -1.7343,9.01836 -1.3874,3.81546 -5.8966,5.2029 -4.1623,1.38744 -11.0995,2.42802 -6.9372,1.38744 -12.487,1.38744 z m 114.4637,0 q -20.4647,0 -34.3391,-7.63092 -13.5275,-7.63092 -20.1179,-22.5459 -6.5903,-14.91498 -6.5903,-37.46088 v -90.87731 q 0,-7.97778 3.8154,-11.79324 4.1624,-4.16232 11.7933,-4.16232 7.6309,0 11.7932,4.16232 4.1623,3.81546 4.1623,11.79324 v 90.87731 q 0,21.50532 8.6715,31.91112 8.6715,10.05894 27.402,10.05894 20.8116,0 33.6454,-13.8744 13.1807,-13.8744 13.1807,-36.76716 v -82.20581 q 0,-7.97778 3.8154,-11.79324 4.1624,-4.16232 11.7933,-4.16232 7.6309,0 11.7932,4.16232 4.1623,3.81546 4.1623,11.79324 v 141.51887 q 0,16.30242 -15.2618,16.30242 -7.6309,0 -11.7932,-4.16232 -3.8155,-4.16232 -3.8155,-12.1401 v -30.17682 l 4.5092,5.89662 q -6.9372,20.11788 -22.5459,30.87054 -15.2619,10.4058 -36.0735,10.4058 z m 200.1384,0 q -22.199,0 -39.1951,-10.4058 -16.6493,-10.75266 -26.0145,-30.52368 -9.3653,-20.11788 -9.3653,-46.8261 0,-27.05508 9.0184,-46.47923 9.3652,-19.77102 26.0145,-30.17682 16.9961,-10.75266 39.542,-10.75266 22.5459,0 38.8484,11.44638 16.3024,11.09952 21.8521,29.82996 h -3.8154 V 177.00126 q 0,-7.97778 3.8154,-11.79324 4.1624,-4.16232 11.7933,-4.16232 7.6309,0 11.7932,4.16232 4.1623,3.81546 4.1623,11.79324 v 217.13435 q 0,7.97778 -4.1623,12.1401 -4.1623,4.16232 -11.7932,4.16232 -7.2841,0 -11.4464,-4.16232 -4.1623,-4.16232 -4.1623,-12.1401 v -31.56426 l 3.8154,6.24348 q -5.2029,19.42416 -21.8521,30.87054 -16.3025,11.44638 -38.8484,11.44638 z m 7.2841,-24.97392 q 15.2618,0 26.3614,-7.28406 11.4463,-7.28406 17.343,-21.15846 6.2434,-13.8744 6.2434,-34.33914 0,-30.52368 -13.5275,-46.47923 -13.5275,-15.95556 -36.4203,-15.95556 -14.915,0 -26.3614,7.28406 -11.0995,6.9372 -17.343,20.81159 -6.2434,13.8744 -6.2434,34.33914 0,30.52368 13.5275,46.8261 13.8744,15.95556 36.4203,15.95556 z m 147.4154,23.58648 q -7.284,0 -11.4463,-4.50918 -4.1624,-4.50918 -4.1624,-12.48696 V 254.35104 q 0,-8.32464 4.1624,-12.48696 4.1623,-4.50918 11.4463,-4.50918 7.631,0 11.7933,4.50918 4.1623,4.16232 4.1623,12.48696 v 138.39713 q 0,7.97778 -4.1623,12.48696 -3.8155,4.50918 -11.7933,4.50918 z m 0,-209.85029 q -9.3652,0 -14.9149,-4.85604 -5.2029,-5.2029 -5.2029,-13.52754 0,-9.01836 5.2029,-13.52754 5.5497,-4.85604 14.9149,-4.85604 10.059,0 14.915,4.85604 5.2029,4.50918 5.2029,13.52754 0,8.32464 -5.2029,13.52754 -4.856,4.85604 -14.915,4.85604 z m 138.397,211.23773 q -24.9739,0 -43.3575,-10.75266 -18.3835,-10.75266 -28.4425,-30.52368 -10.0589,-19.77102 -10.0589,-46.47924 0,-20.11788 5.5497,-36.07344 5.8967,-16.30241 16.6493,-27.74879 10.7527,-11.44638 25.6677,-17.343 15.2618,-6.24348 33.9922,-6.24348 24.974,0 43.3575,10.75266 18.3836,10.75266 28.4426,30.52368 10.0589,19.42415 10.0589,46.13237 0,20.11788 -5.8966,36.4203 -5.5498,16.30242 -16.3024,27.7488 -10.7527,11.44638 -26.0145,17.68986 -14.915,5.89662 -33.6455,5.89662 z m 0,-24.97392 q 15.2619,0 26.3614,-7.28406 11.4464,-7.28406 17.343,-21.15846 6.2435,-13.8744 6.2435,-34.33914 0,-30.52368 -13.5276,-46.47923 -13.5275,-15.95556 -36.4203,-15.95556 -14.9149,0 -26.3613,7.28406 -11.0995,6.9372 -17.343,20.81159 -6.2435,13.8744 -6.2435,34.33914 0,30.52368 13.5275,46.8261 13.8744,15.95556 36.4203,15.95556 z"
     id="text2"
     style="font-weight:500;font-size:346.86px;font-family:'KOLIVO Neo Sans';letter-spacing:0;dominant-baseline:alphabetic;fill:#9b8afb"
     aria-label="Studio" />
</svg>
