<?xml version="1.0" encoding="UTF-8" standalone="no"?>
<svg
   width="3587.0159999999996"
   height="503.0"
   viewBox="0 0 3587.0159999999996 503.0"
   version="1.1"
   id="svg2"
   sodipodi:docname="kolivo-atlas-wordmark-tm-accent.svg"
   xmlns:inkscape="http://www.inkscape.org/namespaces/inkscape"
   xmlns:sodipodi="http://sodipodi.sourceforge.net/DTD/sodipodi-0.dtd"
   xmlns="http://www.w3.org/2000/svg"
   xmlns:svg="http://www.w3.org/2000/svg">
  <defs
     id="defs2" />
  <g
     id="kolivo_wordmark"
     transform="translate(40,40)">
    <defs
       id="defs1">
      <style
         id="style1">
      .st0 {
        font-family: KOLIVO-Neo-Sans-Bold, 'KOLIVO Neo Sans';
        font-size: 60px;
        font-weight: 700;
      }
    </style>
    </defs>
    <sodipodi:namedview
       id="namedview9"
       bordercolor="#000000"
       borderopacity="0.25"
       inkscape:current-layer="Calque_1"
       inkscape:cx="1138.8462"
       inkscape:cy="211.5"
       inkscape:deskcolor="#d1d1d1"
       inkscape:pagecheckerboard="0"
       inkscape:pageopacity="0.0"
       inkscape:showpageshadow="2"
       inkscape:window-height="245"
       inkscape:window-maximized="0"
       inkscape:window-width="944"
       inkscape:window-x="0"
       inkscape:window-y="34"
       inkscape:zoom="0.061465721"
       pagecolor="#ffffff" />
    <path
       id="path1"
       d="M724.12,30.08C690.82,8.46,654.06.16,615.27,0c-110.94-.46-201.72,88.04-201.27,212.84.33,89.1,49.41,164.89,124.69,195.06,86.32,34.6,191.34,9.8,246.03-74.9,37.67-58.34,43.82-133.75,20.77-200.25-15.38-44.36-44.57-78.76-81.38-102.66h.01ZM616.35,357.46c-72.93,0-132.06-65.36-132.06-145.98s59.12-145.98,132.06-145.98,132.06,65.36,132.06,145.98-59.12,145.98-132.06,145.98Z"
       fill="#172638" />
    <path
       id="path2"
       d="M2060.13,0c-62.3-.07-120.71,23-161.58,75.07-51.72,65.89-60.35,161.37-21.89,238.14,26.32,52.53,71.86,88.52,125.1,102.53,89.59,23.58,189.3-10.55,235.07-100.9,32-63.17,32.28-142.61.13-205.97C2201.43,38.85,2132.08.1,2060.13,0ZM2056.9,357.55c-73.59,0-133.25-65.38-133.25-146.03s59.66-146.03,133.25-146.03,133.25,65.38,133.25,146.03-59.66,146.03-133.25,146.03Z"
       fill="#172638" />
    <path
       id="path3"
       d="M1798.55.38l-32.97-.38c-15.27,2.11-27.21,10.43-33.57,26.47l-117.23,296.92-114.94-293.79c-6.15-15.72-15.44-26.1-30.78-29.54l-43.13.6c-4.66.06-10.36,10.52-8.29,15.77l108.43,275.51,42.03,105.03c8.66,21.65,25.98,25.42,44.96,26,22.67.69,38.22-6.97,47.57-30.67l107.78-273.12,39.78-100.19c1.44-3.63.85-10.29-.57-12.59-1.43-2.3-6.5-5.99-9.05-6.02h-.02Z"
       fill="#172638" />
    <path
       id="path4"
       d="M1174.45,356.95l-175.81-.43c-5.49-.01-9.94-4.89-9.95-10.9l-.3-307.45c-.02-22.43-19.95-36.61-38.2-34.03-17.97,1.03-32.21,15.67-32.2,36.15l.12,341.74c0,21.97,15.99,40.84,36.24,40.85l218.88.13c14.8,0,23.51-14.08,23.55-30.52,0-.29.02-.58.04-.87,1.51-15.58-6.96-34.63-22.38-34.67h0Z"
       fill="#172638" />
    <path
       id="path5"
       d="M286.6,92.69c13.47-23.21,23.77-47.33,34.25-72.28,5.4-10.31-1.32-19.92-12.89-20.05-28.95-.33-38.67-1.99-51.13,6.2-4.81,3.16-9.14,7.77-13.21,14.45-40.96,96.21-113.69,145.71-208.59,149.95-1.62.07-3.24.28-4.82.7C13.47,176.07.33,192.16.5,212.14c.48,14.99-1.08,134.73,0,177.43,2.99,41.68,62.94,45.58,69.47,4.96,1.47-12.17.44-138.32.91-152.33,1.01-6.89,19.92-6.28,25.27-8.42,78.08-13.19,147.54-67.36,190.33-140.89l.11-.19h0Z"
       fill="#172638" />
    <path
       id="path6"
       d="M1309.42,3.43c-14.85-.57-35.57,11.99-35.59,33.89l-.23,348.2c-.02,23.19,18.47,38.03,35.95,37.47,18.61-.6,33.87-16.36,33.92-39.17l.24-107.39-.31-234.24c-.03-22.6-14.75-38.02-33.99-38.75h.01Z"
       fill="#172638" />
    <path
       id="path7"
       d="M168.5,250.36c-2.94,1.95-6.77,4.04-6.49,8.78.12,2.1,1.34,4.45,2.42,6.17,1.17,1.9,71.46,97.95,91.96,126.26,9.83,13.51,25.29,22.55,41.8,22.42,9.62-.06,27.66-.12,37.15-.17,4.16-.1,4.16.16,6.85-.22,4.62-.84,7.48-4.51,8.47-8.79.93-4.05-.1-8.31-2.5-11.7-17.28-24.48-105.24-142.68-121.41-164.19-2.81-3.74-7.9-5.01-12.07-2.9-.04.02-.08.04-.12.06-16.4,8.38-17.51,8.82-45.9,24.19"
       fill="#172638" />
    <path
       id="path8"
       d="M23.32,142.96c24.4-2.86,46.01-16.09,46.78-44.59.57-21.24.74-42.66-.25-63.95C68.69,9.57,46.14-4.21,26.88,1.15,11.03,5.55-.06,19.05,0,38.8l.29,90.88c-.17,13.99-.17,15.99,23.03,13.27h0Z"
       fill="#172638" />
    <path
       d="m 28.98,-16.62 q -1.38,0 -2.16,-0.78 -0.78,-0.78 -0.78,-2.22 v -20.04 q 0,-1.02 0.36,-1.68 0.42,-0.72 1.08,-1.02 0.72,-0.36 1.5,-0.36 1.32,0 1.98,0.48 0.72,0.42 1.38,1.56 l 7.8,13.26 h -1.26 l 7.74,-13.26 q 0.66,-1.14 1.32,-1.56 0.72,-0.48 2.04,-0.48 1.2,0 2.04,0.78 0.9,0.72 0.9,2.28 v 20.04 q 0,3 -2.88,3 -1.44,0 -2.22,-0.78 -0.72,-0.78 -0.72,-2.22 V -33 h 1.08 l -6.72,11.22 q -0.42,0.6 -0.9,0.9 -0.42,0.24 -1.08,0.24 -0.6,0 -1.08,-0.24 -0.48,-0.3 -0.9,-0.9 L 30.78,-33 h 1.08 v 13.38 q 0,3 -2.88,3 z m -17.4,0 q -1.62,0 -2.52,-0.9 -0.84,-0.9 -0.84,-2.58 V -36.78 H 3.18 q -1.38,0 -2.16,-0.72 -0.72,-0.72 -0.72,-2.04 0,-1.38 0.72,-2.04 0.78,-0.72 2.16,-0.72 h 16.86 q 1.38,0 2.1,0.72 0.78,0.66 0.78,2.04 0,1.32 -0.78,2.04 -0.72,0.72 -2.1,0.72 H 15 v 16.68 q 0,1.68 -0.9,2.58 -0.84,0.9 -2.52,0.9 z"
       id="text1"
       class="st0"
       style="font-weight:700;font-size:60px;font-family:KOLIVO-Neo-Sans-Bold, 'KOLIVO Neo Sans';fill:#172638"
       transform="translate(2228.76 48.81)"
       aria-label="™" />
  </g>
  <path
     d="m 2457.7645,410.43803 q -6.2435,0 -10.0589,-2.77488 -3.4686,-2.77488 -4.1624,-7.63092 -0.6937,-4.85604 2.0812,-10.75266 l 94.6928,-214.35947 q 3.1217,-7.28406 7.9778,-10.4058 4.856,-3.4686 10.7526,-3.4686 5.8966,0 10.4058,3.4686 4.8561,3.12174 8.3247,10.4058 l 94.6927,214.35947 q 2.7749,5.89662 2.0812,11.09952 -0.3469,4.85604 -3.8155,7.63092 -3.4686,2.42802 -9.712,2.42802 -6.9372,0 -11.0996,-3.4686 -4.1623,-3.81546 -7.284,-10.75266 l -24.6271,-57.57876 14.915,8.32464 h -148.4561 l 14.915,-8.32464 -24.6271,57.57876 q -3.1217,7.63092 -6.9372,11.09952 -3.8154,3.12174 -10.0589,3.12174 z m 100.5894,-210.54401 -54.1102,127.99133 -8.3246,-7.28406 h 125.5633 l -7.9778,7.28406 -54.457,-127.99133 z m 218.5215,211.23773 q -20.4647,0 -34.3391,-7.28406 -13.5275,-7.28406 -20.4647,-21.15846 -6.5904,-13.8744 -6.5904,-33.99228 V 263.3694 h -22.199 q -6.2435,0 -9.7121,-3.12174 -3.4686,-3.4686 -3.4686,-9.01836 0,-5.89662 3.4686,-9.01836 3.4686,-3.12174 9.7121,-3.12174 h 22.199 v -37.80774 q 0,-7.97778 4.1624,-11.79324 4.1623,-4.16232 11.7932,-4.16232 7.6309,0 11.4464,4.16232 4.1623,3.81546 4.1623,11.79324 v 37.80774 h 41.97 q 6.5904,0 10.059,3.12174 3.4686,3.12174 3.4686,9.01836 0,5.54976 -3.4686,9.01836 -3.4686,3.12174 -10.059,3.12174 h -41.97 v 82.55267 q 0,19.0773 7.9778,28.78938 7.9777,9.71208 26.3613,9.71208 6.5904,0 11.0995,-1.04058 4.5092,-1.38744 7.9778,-1.38744 3.1218,-0.34686 5.2029,2.08116 2.428,2.42802 2.428,9.01836 0,4.85604 -1.7343,9.01836 -1.3874,3.81546 -5.8966,5.2029 -4.1623,1.38744 -11.0995,2.42802 -6.9372,1.38744 -12.487,1.38744 z m 109.9544,0 q -26.0145,0 -39.542,-15.26184 -13.5276,-15.6087 -13.5276,-44.74494 V 177.00126 q 0,-7.97778 4.1624,-11.79324 4.1623,-4.16232 11.4463,-4.16232 7.631,0 11.7933,4.16232 4.1623,3.81546 4.1623,11.79324 v 171.69569 q 0,18.03672 7.2841,27.05508 7.6309,8.6715 21.5053,8.6715 3.1217,0 5.5497,0 2.428,-0.34686 4.8561,-0.69372 3.8154,-0.34686 5.5497,2.08116 1.7343,2.42802 1.7343,9.71208 0,6.59034 -3.1217,10.4058 -2.7749,3.4686 -9.3652,4.50918 -3.1218,0.34686 -6.2435,0.34686 -3.1218,0.34686 -6.2435,0.34686 z m 105.0988,0 q -17.343,0 -31.5643,-6.9372 -13.8744,-6.9372 -21.8522,-18.73044 -7.6309,-11.79324 -7.6309,-26.36136 0,-18.73044 9.3652,-29.4831 9.3652,-10.75266 31.5643,-15.26184 22.199,-4.85604 59.6599,-4.85604 h 16.3024 v 20.11788 h -15.6087 q -26.7082,0 -42.3169,2.42802 -15.2618,2.42802 -21.5053,8.6715 -6.2435,5.89662 -6.2435,16.64928 0,13.52754 9.3652,22.19904 9.7121,8.6715 26.3614,8.6715 13.1807,0 23.2396,-6.24348 10.0589,-6.59034 15.9556,-17.343 5.8966,-11.09952 5.8966,-25.32078 v -39.8889 q 0,-20.46473 -8.3247,-29.48309 -8.3246,-9.36522 -28.0956,-9.36522 -11.4464,0 -23.5865,3.12174 -12.1401,3.12174 -25.3208,9.71208 -5.2029,2.42802 -9.0183,1.7343 -3.8155,-1.04058 -6.2435,-4.16232 -2.0812,-3.4686 -2.428,-7.28406 0,-4.16232 1.7343,-7.97778 2.0811,-3.81546 6.9372,-5.54976 15.2618,-7.63092 30.1768,-10.75266 15.2618,-3.4686 28.4425,-3.4686 22.5459,0 37.114,7.28406 14.5681,6.9372 21.8522,21.85218 7.2841,14.56812 7.2841,37.46087 v 91.57104 q 0,7.97778 -3.8155,12.1401 -3.8155,4.16232 -11.0995,4.16232 -6.9372,0 -11.0995,-4.16232 -3.8155,-4.16232 -3.8155,-12.1401 v -24.62706 h 3.1217 q -2.7748,12.83382 -10.4058,22.19904 -7.6309,9.36522 -19.0773,14.56812 -11.0995,4.85604 -25.3207,4.85604 z m 189.3858,0 q -15.6087,0 -31.5642,-3.4686 -15.6087,-3.81546 -29.4831,-12.83382 -3.8155,-2.42802 -5.5498,-5.89662 -1.3874,-3.81546 -1.0405,-7.28406 0.6937,-3.81546 3.1217,-6.59034 2.428,-2.77488 5.8966,-3.12174 3.8155,-0.69372 7.9778,1.7343 13.5275,7.63092 26.0145,10.75266 12.8338,3.12174 25.3208,3.12174 19.0773,0 28.7893,-6.9372 9.7121,-6.9372 9.7121,-18.38358 0,-9.71208 -6.5903,-14.91498 -6.2435,-5.54976 -19.771,-8.32464 l -32.258,-6.59034 q -21.5053,-4.85604 -32.6048,-15.95556 -10.7527,-11.44638 -10.7527,-29.13624 0,-15.60869 8.3246,-27.05507 8.6715,-11.79324 23.9334,-18.03672 15.2618,-6.24348 35.0328,-6.24348 15.2619,0 28.7894,4.16232 13.8744,3.81546 24.9739,11.79324 4.1623,2.42802 5.2029,6.24348 1.3875,3.4686 0.3469,7.28406 -0.6937,3.4686 -3.1218,5.89662 -2.428,2.42802 -6.2434,3.12174 -3.8155,0.34686 -8.3247,-2.08116 -10.0589,-6.9372 -20.8116,-9.71208 -10.4058,-3.12174 -20.8116,-3.12174 -18.7304,0 -28.4425,7.28406 -9.3652,7.28406 -9.3652,19.07729 0,9.01836 5.5497,14.91498 5.8967,5.89662 18.3836,8.6715 l 32.258,6.59034 q 22.5459,4.85604 33.9923,15.6087 11.4464,10.4058 11.4464,28.44252 0,23.58648 -18.7305,37.46088 -18.3836,13.52754 -49.601,13.52754 z"
     id="text2"
     style="font-weight:500;font-size:346.86px;font-family:'KOLIVO Neo Sans';letter-spacing:0;dominant-baseline:alphabetic;fill:#3b82f6"
     aria-label="Atlas" />
</svg>
