<?xml version="1.0" encoding="UTF-8" standalone="no"?>
<svg
   width="3371.9628"
   height="503.0"
   viewBox="0 0 3371.9628 503.0"
   version="1.1"
   id="svg2"
   sodipodi:docname="kolivo-link-wordmark-tm-accent.svg"
   xmlns:inkscape="http://www.inkscape.org/namespaces/inkscape"
   xmlns:sodipodi="http://sodipodi.sourceforge.net/DTD/sodipodi-0.dtd"
   xmlns="http://www.w3.org/2000/svg"
   xmlns:svg="http://www.w3.org/2000/svg">
  <defs
     id="defs2" />
  <g
     id="kolivo_wordmark"
     transform="translate(40,40)">
    <defs
       id="defs1">
      <style
         id="style1">
      .st0 {
        font-family: KOLIVO-Neo-Sans-Bold, 'KOLIVO Neo Sans';
        font-size: 60px;
        font-weight: 700;
      }
    </style>
    </defs>
    <sodipodi:namedview
       id="namedview9"
       bordercolor="#000000"
       borderopacity="0.25"
       inkscape:current-layer="Calque_1"
       inkscape:cx="1138.8462"
       inkscape:cy="211.5"
       inkscape:deskcolor="#d1d1d1"
       inkscape:pagecheckerboard="0"
       inkscape:pageopacity="0.0"
       inkscape:showpageshadow="2"
       inkscape:window-height="245"
       inkscape:window-maximized="0"
       inkscape:window-width="944"
       inkscape:window-x="0"
       inkscape:window-y="34"
       inkscape:zoom="0.061465721"
       pagecolor="#ffffff" />
    <path
       id="path1"
       d="M724.12,30.08C690.82,8.46,654.06.16,615.27,0c-110.94-.46-201.72,88.04-201.27,212.84.33,89.1,49.41,164.89,124.69,195.06,86.32,34.6,191.34,9.8,246.03-74.9,37.67-58.34,43.82-133.75,20.77-200.25-15.38-44.36-44.57-78.76-81.38-102.66h.01ZM616.35,357.46c-72.93,0-132.06-65.36-132.06-145.98s59.12-145.98,132.06-145.98,132.06,65.36,132.06,145.98-59.12,145.98-132.06,145.98Z"
       fill="#172638" />
    <path
       id="path2"
       d="M2060.13,0c-62.3-.07-120.71,23-161.58,75.07-51.72,65.89-60.35,161.37-21.89,238.14,26.32,52.53,71.86,88.52,125.1,102.53,89.59,23.58,189.3-10.55,235.07-100.9,32-63.17,32.28-142.61.13-205.97C2201.43,38.85,2132.08.1,2060.13,0ZM2056.9,357.55c-73.59,0-133.25-65.38-133.25-146.03s59.66-146.03,133.25-146.03,133.25,65.38,133.25,146.03-59.66,146.03-133.25,146.03Z"
       fill="#172638" />
    <path
       id="path3"
       d="M1798.55.38l-32.97-.38c-15.27,2.11-27.21,10.43-33.57,26.47l-117.23,296.92-114.94-293.79c-6.15-15.72-15.44-26.1-30.78-29.54l-43.13.6c-4.66.06-10.36,10.52-8.29,15.77l108.43,275.51,42.03,105.03c8.66,21.65,25.98,25.42,44.96,26,22.67.69,38.22-6.97,47.57-30.67l107.78-273.12,39.78-100.19c1.44-3.63.85-10.29-.57-12.59-1.43-2.3-6.5-5.99-9.05-6.02h-.02Z"
       fill="#172638" />
    <path
       id="path4"
       d="M1174.45,356.95l-175.81-.43c-5.49-.01-9.94-4.89-9.95-10.9l-.3-307.45c-.02-22.43-19.95-36.61-38.2-34.03-17.97,1.03-32.21,15.67-32.2,36.15l.12,341.74c0,21.97,15.99,40.84,36.24,40.85l218.88.13c14.8,0,23.51-14.08,23.55-30.52,0-.29.02-.58.04-.87,1.51-15.58-6.96-34.63-22.38-34.67h0Z"
       fill="#172638" />
    <path
       id="path5"
       d="M286.6,92.69c13.47-23.21,23.77-47.33,34.25-72.28,5.4-10.31-1.32-19.92-12.89-20.05-28.95-.33-38.67-1.99-51.13,6.2-4.81,3.16-9.14,7.77-13.21,14.45-40.96,96.21-113.69,145.71-208.59,149.95-1.62.07-3.24.28-4.82.7C13.47,176.07.33,192.16.5,212.14c.48,14.99-1.08,134.73,0,177.43,2.99,41.68,62.94,45.58,69.47,4.96,1.47-12.17.44-138.32.91-152.33,1.01-6.89,19.92-6.28,25.27-8.42,78.08-13.19,147.54-67.36,190.33-140.89l.11-.19h0Z"
       fill="#172638" />
    <path
       id="path6"
       d="M1309.42,3.43c-14.85-.57-35.57,11.99-35.59,33.89l-.23,348.2c-.02,23.19,18.47,38.03,35.95,37.47,18.61-.6,33.87-16.36,33.92-39.17l.24-107.39-.31-234.24c-.03-22.6-14.75-38.02-33.99-38.75h.01Z"
       fill="#172638" />
    <path
       id="path7"
       d="M168.5,250.36c-2.94,1.95-6.77,4.04-6.49,8.78.12,2.1,1.34,4.45,2.42,6.17,1.17,1.9,71.46,97.95,91.96,126.26,9.83,13.51,25.29,22.55,41.8,22.42,9.62-.06,27.66-.12,37.15-.17,4.16-.1,4.16.16,6.85-.22,4.62-.84,7.48-4.51,8.47-8.79.93-4.05-.1-8.31-2.5-11.7-17.28-24.48-105.24-142.68-121.41-164.19-2.81-3.74-7.9-5.01-12.07-2.9-.04.02-.08.04-.12.06-16.4,8.38-17.51,8.82-45.9,24.19"
       fill="#172638" />
    <path
       id="path8"
       d="M23.32,142.96c24.4-2.86,46.01-16.09,46.78-44.59.57-21.24.74-42.66-.25-63.95C68.69,9.57,46.14-4.21,26.88,1.15,11.03,5.55-.06,19.05,0,38.8l.29,90.88c-.17,13.99-.17,15.99,23.03,13.27h0Z"
       fill="#172638" />
    <path
       d="m 28.98,-16.62 q -1.38,0 -2.16,-0.78 -0.78,-0.78 -0.78,-2.22 v -20.04 q 0,-1.02 0.36,-1.68 0.42,-0.72 1.08,-1.02 0.72,-0.36 1.5,-0.36 1.32,0 1.98,0.48 0.72,0.42 1.38,1.56 l 7.8,13.26 h -1.26 l 7.74,-13.26 q 0.66,-1.14 1.32,-1.56 0.72,-0.48 2.04,-0.48 1.2,0 2.04,0.78 0.9,0.72 0.9,2.28 v 20.04 q 0,3 -2.88,3 -1.44,0 -2.22,-0.78 -0.72,-0.78 -0.72,-2.22 V -33 h 1.08 l -6.72,11.22 q -0.42,0.6 -0.9,0.9 -0.42,0.24 -1.08,0.24 -0.6,0 -1.08,-0.24 -0.48,-0.3 -0.9,-0.9 L 30.78,-33 h 1.08 v 13.38 q 0,3 -2.88,3 z m -17.4,0 q -1.62,0 -2.52,-0.9 -0.84,-0.9 -0.84,-2.58 V -36.78 H 3.18 q -1.38,0 -2.16,-0.72 -0.72,-0.72 -0.72,-2.04 0,-1.38 0.72,-2.04 0.78,-0.72 2.16,-0.72 h 16.86 q 1.38,0 2.1,0.72 0.78,0.66 0.78,2.04 0,1.32 -0.78,2.04 -0.72,0.72 -2.1,0.72 H 15 v 16.68 q 0,1.68 -0.9,2.58 -0.84,0.9 -2.52,0.9 z"
       id="text1"
       class="st0"
       style="font-weight:700;font-size:60px;font-family:KOLIVO-Neo-Sans-Bold, 'KOLIVO Neo Sans';fill:#172638"
       transform="translate(2228.76 48.81)"
       aria-label="™" />
  </g>
  <path
     d="m 2477.5355,408.01001 q -7.6309,0 -12.1401,-4.50918 -4.1623,-4.50918 -4.1623,-12.1401 V 178.3887 q 0,-7.97778 4.1623,-12.1401 4.1623,-4.16232 11.7933,-4.16232 7.9777,0 12.1401,4.16232 4.1623,4.16232 4.1623,12.1401 v 201.87251 h 110.3015 q 7.284,0 10.7526,3.4686 3.8155,3.4686 3.8155,10.05894 0,6.9372 -3.8155,10.75266 -3.4686,3.4686 -10.7526,3.4686 z m 185.2234,1.7343 q -7.2841,0 -11.4464,-4.50918 -4.1623,-4.50918 -4.1623,-12.48696 V 254.35104 q 0,-8.32464 4.1623,-12.48696 4.1623,-4.50918 11.4464,-4.50918 7.6309,0 11.7932,4.50918 4.1623,4.16232 4.1623,12.48696 v 138.39713 q 0,7.97778 -4.1623,12.48696 -3.8155,4.50918 -11.7932,4.50918 z m 0,-209.85029 q -9.3652,0 -14.915,-4.85604 -5.2029,-5.2029 -5.2029,-13.52754 0,-9.01836 5.2029,-13.52754 5.5498,-4.85604 14.915,-4.85604 10.0589,0 14.9149,4.85604 5.2029,4.50918 5.2029,13.52754 0,8.32464 -5.2029,13.52754 -4.856,4.85604 -14.9149,4.85604 z m 82.2056,210.54401 q -7.284,0 -11.4464,-4.16232 -4.1623,-4.16232 -4.1623,-12.1401 V 252.61674 q 0,-7.97778 4.1623,-11.79324 4.1624,-4.16232 11.4464,-4.16232 7.2841,0 11.0995,4.16232 4.1624,3.81546 4.1624,11.79324 v 28.44252 l -3.8155,-5.2029 q 7.2841,-19.77102 23.5865,-29.82996 16.6493,-10.05894 37.8077,-10.05894 20.4647,0 33.6454,7.28406 13.1807,7.28406 19.771,22.19904 6.5904,14.91498 6.5904,37.80773 v 90.87732 q 0,7.97778 -4.1623,12.1401 -3.8155,4.16232 -11.4464,4.16232 -7.6309,0 -11.7933,-4.16232 -4.1623,-4.16232 -4.1623,-12.1401 v -89.14302 q 0,-22.54589 -8.6715,-32.95169 -8.6715,-10.4058 -27.7488,-10.4058 -22.199,0 -35.7265,13.8744 -13.1807,13.52753 -13.1807,36.76715 v 81.85896 q 0,16.30242 -15.9556,16.30242 z m 198.4041,0 q -7.2841,0 -11.4464,-4.16232 -4.1623,-4.16232 -4.1623,-12.1401 V 177.00126 q 0,-7.97778 4.1623,-11.79324 4.1623,-4.16232 11.4464,-4.16232 7.6309,0 11.7932,4.16232 4.1624,3.81546 4.1624,11.79324 v 136.66283 h 0.6937 l 67.9845,-66.25025 q 5.2029,-5.2029 9.3653,-7.97778 4.1623,-2.77488 10.7526,-2.77488 6.5904,0 10.059,3.4686 3.4686,3.12174 3.4686,8.32464 0,4.85604 -4.8561,9.71208 l -72.1469,70.06571 v -15.6087 l 78.7373,75.96234 q 4.856,4.85604 4.5091,10.05894 0,5.2029 -3.8154,8.6715 -3.4686,3.12174 -9.3652,3.12174 -6.9372,0 -11.4464,-2.77488 -4.1623,-2.77488 -9.7121,-8.6715 l -73.5343,-69.372 h -0.6937 v 64.51596 q 0,16.30242 -15.9556,16.30242 z"
     id="text2"
     style="font-weight:500;font-size:346.86px;font-family:'KOLIVO Neo Sans';letter-spacing:0;dominant-baseline:alphabetic;fill:#06b6d4"
     aria-label="Link" />
</svg>
